<svg viewBox="0 0 192 192" xmlns="http://www.w3.org/2000/svg" width="192" height="192"><g transform="rotate(0 3.14 2.18) translate(-3.017186364588241 35.51341441641457) scale(1.7220380237319695)"><defs><style>.cls-1{isolation:isolate;}.cls-2{fill:#efcf33;}.cls-3,.cls-31,.cls-32,.cls-33,.cls-34,.cls-35,.cls-36,.cls-37,.cls-38,.cls-39,.cls-40,.cls-41,.cls-42,.cls-43,.cls-44,.cls-45,.cls-46,.cls-47,.cls-48,.cls-49,.cls-5,.cls-50,.cls-51,.cls-52,.cls-53,.cls-54,.cls-55,.cls-56,.cls-57,.cls-58,.cls-59,.cls-60,.cls-61,.cls-62,.cls-63,.cls-64,.cls-65,.cls-66,.cls-67,.cls-68,.cls-69,.cls-70,.cls-71,.cls-72,.cls-73,.cls-74,.cls-75,.cls-76,.cls-77,.cls-78,.cls-79,.cls-80,.cls-81,.cls-85,.cls-86{fill:#fff;}.cls-4{fill:url(#i);}.cls-5{opacity:0.3;}.cls-5,.cls-7,.cls-85,.cls-86{mix-blend-mode:overlay;}.cls-6{fill:url(#h);}.cls-10,.cls-11,.cls-12,.cls-13,.cls-14,.cls-15,.cls-16,.cls-17,.cls-18,.cls-19,.cls-20,.cls-21,.cls-22,.cls-23,.cls-24,.cls-25,.cls-26,.cls-27,.cls-28,.cls-29,.cls-8,.cls-9{fill:#87d0cb;}.cls-8,.cls-81{opacity:0;}.cls-9{opacity:0.05;}.cls-10{opacity:0.1;}.cls-11{opacity:0.14;}.cls-12{opacity:0.19;}.cls-13{opacity:0.24;}.cls-14{opacity:0.29;}.cls-15{opacity:0.33;}.cls-16{opacity:0.38;}.cls-17{opacity:0.43;}.cls-18{opacity:0.48;}.cls-19{opacity:0.52;}.cls-20{opacity:0.57;}.cls-21{opacity:0.62;}.cls-22{opacity:0.67;}.cls-23{opacity:0.71;}.cls-24{opacity:0.76;}.cls-25{opacity:0.81;}.cls-26{opacity:0.86;}.cls-27{opacity:0.9;}.cls-28{opacity:0.95;}.cls-30{opacity:0.6;}.cls-31{opacity:0.98;}.cls-32{opacity:0.96;}.cls-33{opacity:0.94;}.cls-34{opacity:0.92;}.cls-35{opacity:0.9;}.cls-36{opacity:0.88;}.cls-37{opacity:0.86;}.cls-38{opacity:0.84;}.cls-39{opacity:0.82;}.cls-40{opacity:0.8;}.cls-41{opacity:0.78;}.cls-42{opacity:0.76;}.cls-43{opacity:0.75;}.cls-44{opacity:0.73;}.cls-45{opacity:0.71;}.cls-46{opacity:0.69;}.cls-47{opacity:0.67;}.cls-48{opacity:0.65;}.cls-49{opacity:0.63;}.cls-50{opacity:0.61;}.cls-51{opacity:0.59;}.cls-52{opacity:0.57;}.cls-53{opacity:0.55;}.cls-54{opacity:0.53;}.cls-55{opacity:0.51;}.cls-56{opacity:0.49;}.cls-57{opacity:0.47;}.cls-58{opacity:0.45;}.cls-59{opacity:0.43;}.cls-60{opacity:0.41;}.cls-61{opacity:0.39;}.cls-62{opacity:0.37;}.cls-63{opacity:0.35;}.cls-64{opacity:0.33;}.cls-65{opacity:0.31;}.cls-66{opacity:0.29;}.cls-67{opacity:0.27;}.cls-68{opacity:0.25;}.cls-69{opacity:0.24;}.cls-70{opacity:0.22;}.cls-71{opacity:0.2;}.cls-72{opacity:0.18;}.cls-73{opacity:0.16;}.cls-74{opacity:0.14;}.cls-75{opacity:0.12;}.cls-76{opacity:0.1;}.cls-77{opacity:0.08;}.cls-78{opacity:0.06;}.cls-79{opacity:0.04;}.cls-80{opacity:0.02;}.cls-82{fill:url(#j);}.cls-83{fill:url(#k);}.cls-84{fill:url(#g);}.cls-85{opacity:0.15;}.cls-86{opacity:0.2;}.cls-87{fill:url(#l);}.cls-88{opacity:0.5;}.cls-89{opacity:0.75;}</style><linearGradient id="i" x1="46.73" x2="52" y1="52.76" y2="52.76" gradientUnits="userSpaceOnUse"><stop stop-color="#e1bbd8" offset="0"></stop><stop stop-color="#d9b6d5" offset=".11"></stop><stop stop-color="#c2a8cd" offset=".29"></stop><stop stop-color="#9c91bf" offset=".51"></stop><stop stop-color="#6872ad" offset=".76"></stop><stop stop-color="#315099" offset="1"></stop></linearGradient><linearGradient id="h" x1="20.64" x2="27.6" y1="35.86" y2="35.86" gradientUnits="userSpaceOnUse"><stop stop-color="#fff" offset=".02"></stop><stop stop-color="#87d0cb" offset=".5"></stop><stop stop-color="#5eb6ca" offset=".67"></stop><stop stop-color="#3098c9" offset=".89"></stop><stop stop-color="#1e8cc9" offset="1"></stop></linearGradient><linearGradient id="j" x1="43.54" x2="47.42" y1="22.12" y2="22.12" gradientUnits="userSpaceOnUse"><stop stop-color="#e1bbd8" offset="0"></stop><stop stop-color="#a1bdd2" offset=".39"></stop><stop stop-color="#3ec0c9" offset="1"></stop></linearGradient><linearGradient id="k" x1="94.78" x2="96.47" y1="28.59" y2="28.59" gradientUnits="userSpaceOnUse"><stop stop-color="#e1bbd8" offset="0"></stop><stop stop-color="#948cbc" offset=".43"></stop><stop stop-color="#315099" offset="1"></stop></linearGradient><linearGradient id="g" x1="67.61" x2="87.89" y1="30.3" y2="30.3" gradientTransform="translate(100.2 -50.06) rotate(84.34)" gradientUnits="userSpaceOnUse"><stop stop-color="#e1bbd8" offset="0"></stop><stop stop-color="#d8b6d5" offset=".11"></stop><stop stop-color="#c0a7cc" offset=".29"></stop><stop stop-color="#988fbe" offset=".52"></stop><stop stop-color="#616daa" offset=".79"></stop><stop stop-color="#315099" offset="1"></stop></linearGradient><linearGradient id="l" x1="80.8" x2="86.61" y1="23.01" y2="23.01" gradientUnits="userSpaceOnUse"><stop stop-color="#87d0cb" offset="0"></stop><stop stop-color="#82c9c8" offset=".14"></stop><stop stop-color="#75b5c1" offset=".35"></stop><stop stop-color="#5f95b4" offset=".59"></stop><stop stop-color="#4168a3" offset=".87"></stop><stop stop-color="#315099" offset="1"></stop></linearGradient></defs><g class="cls-1"><g data-name="Layer 1"><path class="cls-2" d="M24,38.75c.34,4.14,6.19,6.71,14.73,6.76-8-.28-13.46-2.88-13.82-6.93-.39-4.31,5.22-9.12,13.24-12.39C29.65,29.45,23.62,34.38,24,38.75Z"></path><path class="cls-2" d="M73.1,28.66c-2.11-2.62-6.89-4-12.67-4.13,5.25.34,9.54,1.76,11.54,4.26,3.47,4.37-.87,10.68-10.52,15.28C71.81,39.5,76.64,33,73.1,28.66Z"></path><path class="cls-2" d="m57.22 50.66c-9 2.54-17.29 3-23.59 1.89 6.2 1.6 15 1.36 24.59-1.36 14.63-4.19 23.14-11.77 22.83-17.93-0.84 6.15-9.55 13.35-23.83 17.4z"></path><rect class="cls-3" x="38.98" y="17.83" width=".96" height=".96"></rect><rect class="cls-3" x="17" y="29.44" width=".98" height=".98"></rect><rect class="cls-3" x="42.25" y="18.62" width=".16" height=".16"></rect><rect class="cls-3" x="41.58" y="12.76" width=".16" height=".16"></rect><rect class="cls-3" x="31.08" y="24.2" width=".16" height=".16"></rect><rect class="cls-3" x="31.27" y="15.58" width=".16" height=".16"></rect><rect class="cls-3" x="37.73" y="16.91" width=".16" height=".16"></rect><rect class="cls-3" x="28.03" y="58.12" width=".42" height=".42"></rect><rect class="cls-3" x="17.52" y="50.47" width=".16" height=".16"></rect><rect class="cls-3" x="23.38" y="49.8" width=".16" height=".16"></rect><rect class="cls-3" x="11.93" y="39.3" width=".16" height=".16"></rect><rect class="cls-3" x="20.55" y="39.49" width=".16" height=".16"></rect><rect class="cls-3" x="19.22" y="45.95" width=".16" height=".16"></rect><rect class="cls-3" x="18.58" y="51.14" width=".9" height=".9"></rect><rect class="cls-3" x="55.65" y="16.08" width=".98" height=".98"></rect><rect class="cls-3" transform="translate(-26.88 32.42) rotate(-33.87)" x="39.72" y="60.26" width=".16" height=".16"></rect><rect class="cls-3" transform="translate(-23.99 34.31) rotate(-33.9)" x="44.21" y="56.44" width=".16" height=".16"></rect><rect class="cls-3" transform="translate(-25.29 25.33) rotate(-33.88)" x="28.85" y="54.1" width=".16" height=".16"></rect><rect class="cls-3" transform="translate(-24.45 31.02) rotate(-33.88)" x="38.61" y="55.56" width=".16" height=".16"></rect><rect class="cls-3" x="19.05" y="39.85" width=".42" height=".42"></rect><rect class="cls-3" x="26.29" y="46.04" width=".42" height=".42"></rect><rect class="cls-3" x="65.13" y="56.06" width=".16" height=".16"></rect><rect class="cls-3" x="64.46" y="50.2" width=".16" height=".16"></rect><rect class="cls-3" x="53.96" y="61.65" width=".16" height=".16"></rect><rect class="cls-3" x="54.15" y="53.03" width=".16" height=".16"></rect><rect class="cls-3" x="60.61" y="54.36" width=".16" height=".16"></rect><polygon class="cls-3" points="61.64 11.68 61.57 11.61 61.64 11.55 61.71 11.62"></polygon><rect class="cls-3" transform="translate(9.9 43.4) rotate(-43.79)" x="58.9" y="9.34" width=".1" height=".1"></rect><rect class="cls-3" transform="translate(3.62 46.16) rotate(-43.85)" x="59.1" y="18.54" width=".1" height=".1"></rect><polygon class="cls-3" points="55.7 14.89 55.63 14.82 55.7 14.75 55.77 14.82"></polygon><rect class="cls-3" transform="translate(7.52 44.26) rotate(-43.66)" x="58.96" y="12.69" width=".1" height=".1"></rect><rect class="cls-3" x="60.84" y="17.85" width=".16" height=".16"></rect><rect class="cls-3" x="60.16" y="11.99" width=".16" height=".16"></rect><rect class="cls-3" x="49.66" y="23.44" width=".16" height=".16"></rect><rect class="cls-3" x="49.86" y="14.82" width=".16" height=".16"></rect><rect class="cls-3" x="56.31" y="16.15" width=".16" height=".16"></rect><rect class="cls-3" x="52.75" y="46.47" width=".16" height=".16"></rect><rect class="cls-3" x="46.89" y="47.15" width=".16" height=".16"></rect><rect class="cls-3" x="58.33" y="57.65" width=".16" height=".16"></rect><rect class="cls-3" x="49.71" y="57.46" width=".16" height=".16"></rect><rect class="cls-3" x="51.04" y="51" width=".16" height=".16"></rect><path class="cls-4" d="M52,52.76a2.64,2.64,0,1,1-2.64-2.63A2.64,2.64,0,0,1,52,52.76Z"></path><path class="cls-5" d="m47.49 51.55a5.59 5.59 0 0 0 1.15-0.43l2-0.68a2.59 2.59 0 0 0-1.24-0.31 2.63 2.63 0 0 0-2.63 2.63v0.17l2-0.69 2.8-1a2 2 0 0 0-0.29-0.36 9.48 9.48 0 0 1-3.79 0.67z"></path><path class="cls-5" d="M51.93,52.16a6.46,6.46,0,0,1-2.3,1.43l-.89.34c-.22.1-.73.29-1.38.53a2.13,2.13,0,0,0,.3.3l2.46-.84a10.3,10.3,0,0,0,1.17-.37,1.11,1.11,0,0,1-.5.64,3.36,3.36,0,0,1-.43.2c-.69.27-1.4.51-2.1.75a2.57,2.57,0,0,0,1.1.25A2.64,2.64,0,0,0,52,52.76,2.9,2.9,0,0,0,51.93,52.16Z"></path><circle class="cls-6" cx="24.12" cy="35.86" r="3.48"></circle><g class="cls-7"><path class="cls-8" d="m36.58 56.38a1.43 1.43 0 1 1-1.43-1.38 1.43 1.43 0 0 1 1.43 1.38z"></path><path class="cls-9" d="m36.55 56.38a1.4 1.4 0 1 1-1.4-1.4 1.4 1.4 0 0 1 1.4 1.4z"></path><path class="cls-10" d="m36.52 56.38a1.37 1.37 0 1 1-1.37-1.38 1.36 1.36 0 0 1 1.37 1.38z"></path><path class="cls-11" d="m36.48 56.38a1.33 1.33 0 1 1-1.33-1.33 1.33 1.33 0 0 1 1.33 1.33z"></path><path class="cls-12" d="m36.45 56.38a1.3 1.3 0 1 1-1.3-1.3 1.3 1.3 0 0 1 1.3 1.3z"></path><path class="cls-13" d="m36.41 56.38a1.26 1.26 0 1 1-1.26-1.26 1.26 1.26 0 0 1 1.26 1.26z"></path><path class="cls-14" d="m36.38 56.38a1.23 1.23 0 1 1-1.23-1.23 1.23 1.23 0 0 1 1.23 1.23z"></path><path class="cls-15" d="m36.35 56.38a1.2 1.2 0 1 1-1.2-1.2 1.19 1.19 0 0 1 1.2 1.2z"></path><path class="cls-16" d="m36.31 56.38a1.16 1.16 0 1 1-1.16-1.16 1.16 1.16 0 0 1 1.16 1.16z"></path><path class="cls-17" d="m36.28 56.38a1.13 1.13 0 1 1-1.13-1.13 1.13 1.13 0 0 1 1.13 1.13z"></path><path class="cls-18" d="m36.24 56.38a1.09 1.09 0 1 1-1.09-1.09 1.09 1.09 0 0 1 1.09 1.09z"></path><path class="cls-19" d="m36.21 56.38a1.06 1.06 0 1 1-1.06-1.06 1.06 1.06 0 0 1 1.06 1.06z"></path><path class="cls-20" d="m36.18 56.38a1 1 0 1 1-1-1 1 1 0 0 1 1 1z"></path><path class="cls-21" d="m36.14 56.38a1 1 0 1 1-1-1 1 1 0 0 1 1 1z"></path><path class="cls-22" d="m36.11 56.38a1 1 0 1 1-1-1 1 1 0 0 1 1 1z"></path><path class="cls-23" d="M36.07,56.38a.92.92,0,1,1-.92-.92A.92.92,0,0,1,36.07,56.38Z"></path><path class="cls-24" d="M36,56.38a.89.89,0,1,1-.89-.89A.88.88,0,0,1,36,56.38Z"></path><path class="cls-25" d="M36,56.38a.85.85,0,1,1-.85-.85A.85.85,0,0,1,36,56.38Z"></path><path class="cls-26" d="M36,56.38a.82.82,0,1,1-.82-.82A.82.82,0,0,1,36,56.38Z"></path><path class="cls-27" d="M35.94,56.38a.79.79,0,1,1-.79-.79A.78.78,0,0,1,35.94,56.38Z"></path><path class="cls-28" d="M35.9,56.38a.75.75,0,1,1-.75-.75A.75.75,0,0,1,35.9,56.38Z"></path><path class="cls-29" d="M35.87,56.38a.72.72,0,1,1-.72-.72A.71.71,0,0,1,35.87,56.38Z"></path></g><g class="cls-30"><path class="cls-3" d="M33.83,62.23a.11.11,0,0,1-.09.13.11.11,0,1,1-.05-.21A.11.11,0,0,1,33.83,62.23Z"></path><path class="cls-31" d="M33.91,62.17a.11.11,0,0,1-.08.13.11.11,0,0,1-.14-.08.11.11,0,0,1,.08-.13A.11.11,0,0,1,33.91,62.17Z"></path><path class="cls-32" d="M34,62.11a.11.11,0,0,1-.08.13.11.11,0,1,1,.08-.13Z"></path><path class="cls-33" d="M34.07,62.05a.12.12,0,0,1-.08.14.11.11,0,0,1-.13-.09.11.11,0,0,1,.08-.13A.11.11,0,0,1,34.07,62.05Z"></path><path class="cls-34" d="M34.15,62a.11.11,0,1,1-.13-.08A.11.11,0,0,1,34.15,62Z"></path><path class="cls-35" d="M34.23,61.93a.11.11,0,0,1-.08.14A.12.12,0,0,1,34,62a.11.11,0,0,1,.08-.13A.1.1,0,0,1,34.23,61.93Z"></path><path class="cls-36" d="M34.32,61.88a.13.13,0,0,1-.08.13.11.11,0,0,1-.13-.08.1.1,0,0,1,.07-.13A.11.11,0,0,1,34.32,61.88Z"></path><path class="cls-37" d="M34.4,61.82a.12.12,0,0,1-.08.13.11.11,0,0,1-.13-.08.1.1,0,0,1,.08-.13A.11.11,0,0,1,34.4,61.82Z"></path><path class="cls-38" d="M34.48,61.76a.11.11,0,0,1-.08.13.11.11,0,0,1,0-.21A.11.11,0,0,1,34.48,61.76Z"></path><path class="cls-39" d="M34.56,61.7a.11.11,0,0,1-.08.13.12.12,0,0,1-.13-.08.11.11,0,0,1,.08-.13A.11.11,0,0,1,34.56,61.7Z"></path><path class="cls-40" d="M34.64,61.64a.1.1,0,0,1-.08.13.1.1,0,0,1-.12-.08.11.11,0,0,1,.07-.13A.11.11,0,0,1,34.64,61.64Z"></path><path class="cls-41" d="M34.72,61.58a.1.1,0,0,1-.07.13.11.11,0,0,1-.13-.08.1.1,0,0,1,.08-.12A.09.09,0,0,1,34.72,61.58Z"></path><path class="cls-42" d="M34.8,61.52a.1.1,0,0,1-.07.13.11.11,0,0,1-.13-.08.1.1,0,0,1,.08-.12A.09.09,0,0,1,34.8,61.52Z"></path><path class="cls-43" d="M34.89,61.47a.1.1,0,0,1-.08.12.1.1,0,0,1-.12-.07.1.1,0,0,1,.07-.13A.11.11,0,0,1,34.89,61.47Z"></path><path class="cls-44" d="M35,61.41a.1.1,0,0,1-.08.12.1.1,0,0,1-.12-.07.11.11,0,0,1,.07-.13A.11.11,0,0,1,35,61.41Z"></path><path class="cls-45" d="M35.05,61.35a.1.1,0,0,1-.08.12.09.09,0,0,1-.12-.07.11.11,0,0,1,.08-.13A.1.1,0,0,1,35.05,61.35Z"></path><path class="cls-46" d="M35.13,61.29a.1.1,0,0,1-.07.12.11.11,0,0,1-.13-.07.1.1,0,0,1,.08-.12A.09.09,0,0,1,35.13,61.29Z"></path><path class="cls-47" d="M35.21,61.23a.09.09,0,0,1-.07.12.09.09,0,0,1-.12-.07.1.1,0,0,1,.19-.05Z"></path><path class="cls-48" d="M35.29,61.17a.09.09,0,0,1-.07.12.09.09,0,0,1-.12-.07.1.1,0,0,1,.07-.12A.1.1,0,0,1,35.29,61.17Z"></path><path class="cls-49" d="M35.38,61.11a.1.1,0,0,1-.08.12.1.1,0,0,1-.12-.07.1.1,0,0,1,.08-.12A.11.11,0,0,1,35.38,61.11Z"></path><path class="cls-50" d="M35.46,61.06a.09.09,0,0,1-.07.11.09.09,0,0,1-.12-.07.1.1,0,0,1,.07-.12A.11.11,0,0,1,35.46,61.06Z"></path><path class="cls-51" d="M35.54,61a.11.11,0,0,1-.07.12.1.1,0,0,1-.12-.08.11.11,0,0,1,.07-.12A.1.1,0,0,1,35.54,61Z"></path><path class="cls-52" d="M35.62,60.94a.11.11,0,0,1-.07.12.1.1,0,0,1-.12-.08.09.09,0,0,1,.07-.11A.09.09,0,0,1,35.62,60.94Z"></path><path class="cls-53" d="M35.7,60.88a.1.1,0,0,1-.19,0,.1.1,0,0,1,.08-.12A.09.09,0,0,1,35.7,60.88Z"></path><path class="cls-54" d="M35.78,60.82a.09.09,0,1,1-.11-.07A.09.09,0,0,1,35.78,60.82Z"></path><path class="cls-55" d="M35.87,60.76a.11.11,0,0,1-.07.12.1.1,0,0,1-.12-.07.1.1,0,0,1,.07-.12A.11.11,0,0,1,35.87,60.76Z"></path><path class="cls-56" d="M36,60.7a.1.1,0,0,1-.07.12A.1.1,0,1,1,36,60.7Z"></path><path class="cls-57" d="M36,60.64a.1.1,0,0,1-.07.12.09.09,0,0,1-.11-.07.08.08,0,0,1,.06-.11A.09.09,0,0,1,36,60.64Z"></path><path class="cls-58" d="M36.11,60.59a.09.09,0,1,1-.11-.07A.09.09,0,0,1,36.11,60.59Z"></path><path class="cls-59" d="M36.19,60.53a.09.09,0,1,1-.11-.07A.09.09,0,0,1,36.19,60.53Z"></path><path class="cls-60" d="M36.27,60.47a.08.08,0,0,1-.06.11.11.11,0,0,1-.12-.07.09.09,0,0,1,.18,0Z"></path><path class="cls-61" d="M36.36,60.41a.09.09,0,1,1-.18,0,.1.1,0,0,1,.06-.11A.11.11,0,0,1,36.36,60.41Z"></path><path class="cls-62" d="M36.44,60.35a.09.09,0,0,1-.18,0,.09.09,0,0,1,.07-.1C36.38,60.27,36.42,60.3,36.44,60.35Z"></path><path class="cls-63" d="M36.52,60.29a.09.09,0,0,1-.07.11.1.1,0,0,1-.11-.06.09.09,0,0,1,.07-.11A.09.09,0,0,1,36.52,60.29Z"></path><path class="cls-64" d="M36.6,60.23a.09.09,0,0,1-.07.11.09.09,0,0,1-.1-.06.08.08,0,0,1,.06-.11A.09.09,0,0,1,36.6,60.23Z"></path><path class="cls-65" d="M36.68,60.18a.09.09,0,0,1-.06.1.09.09,0,0,1-.11-.06.09.09,0,0,1,.06-.11A.09.09,0,0,1,36.68,60.18Z"></path><path class="cls-66" d="M36.76,60.12a.08.08,0,0,1-.06.1.09.09,0,0,1-.11-.06.09.09,0,0,1,.07-.11A.09.09,0,0,1,36.76,60.12Z"></path><path class="cls-67" d="M36.84,60.06a.07.07,0,0,1-.06.1.07.07,0,0,1-.1-.06c0-.05,0-.09.06-.11A.08.08,0,0,1,36.84,60.06Z"></path><path class="cls-68" d="M36.93,60a.08.08,0,0,1-.07.1.07.07,0,0,1-.1-.06.08.08,0,0,1,.06-.1S36.91,60,36.93,60Z"></path><path class="cls-69" d="M37,59.94a.08.08,0,0,1-.07.1.07.07,0,0,1-.1-.06.09.09,0,0,1,.06-.1A.09.09,0,0,1,37,59.94Z"></path><path class="cls-70" d="M37.09,59.88A.1.1,0,0,1,37,60a.1.1,0,0,1-.11-.07.09.09,0,0,1,.07-.1A.09.09,0,0,1,37.09,59.88Z"></path><path class="cls-71" d="M37.17,59.82a.1.1,0,0,1-.06.11.08.08,0,0,1-.1-.07.08.08,0,0,1,.06-.1A.09.09,0,0,1,37.17,59.82Z"></path><path class="cls-72" d="M37.25,59.77a.08.08,0,0,1-.06.1.09.09,0,0,1-.1-.06.09.09,0,0,1,.06-.11A.08.08,0,0,1,37.25,59.77Z"></path><path class="cls-73" d="M37.33,59.71a.08.08,0,0,1-.06.1.09.09,0,0,1-.1-.06.08.08,0,0,1,.06-.1A.07.07,0,0,1,37.33,59.71Z"></path><path class="cls-74" d="M37.42,59.65a.09.09,0,0,1-.06.1.08.08,0,0,1-.1-.06.07.07,0,0,1,.06-.1A.08.08,0,0,1,37.42,59.65Z"></path><path class="cls-75" d="M37.5,59.59a.09.09,0,0,1-.06.1.08.08,0,0,1-.1-.06.08.08,0,0,1,.06-.1A.09.09,0,0,1,37.5,59.59Z"></path><path class="cls-76" d="M37.58,59.53a.08.08,0,1,1-.1-.06A.09.09,0,0,1,37.58,59.53Z"></path><path class="cls-77" d="M37.66,59.47a.08.08,0,1,1-.1-.06A.08.08,0,0,1,37.66,59.47Z"></path><path class="cls-78" d="M37.74,59.41a.08.08,0,0,1-.06.1.08.08,0,0,1-.09-.06.08.08,0,0,1,.06-.1A.08.08,0,0,1,37.74,59.41Z"></path><path class="cls-79" d="M37.82,59.35a.08.08,0,0,1,0,.1.08.08,0,0,1-.1-.06.08.08,0,0,1,.06-.09A.07.07,0,0,1,37.82,59.35Z"></path><path class="cls-80" d="M37.91,59.3a.08.08,0,0,1-.06.09.08.08,0,0,1-.1-.06.08.08,0,0,1,.06-.09A.08.08,0,0,1,37.91,59.3Z"></path><path class="cls-81" d="M38,59.24a.08.08,0,0,1-.06.09.08.08,0,0,1,0-.15A.09.09,0,0,1,38,59.24Z"></path></g><g class="cls-30"><path class="cls-3" d="M47.28,14.33a.24.24,0,0,1-.18.29.24.24,0,0,1-.29-.17.24.24,0,0,1,.18-.29A.24.24,0,0,1,47.28,14.33Z"></path><path class="cls-31" d="M47.45,14.21a.24.24,0,0,1-.17.29.24.24,0,1,1-.11-.47A.24.24,0,0,1,47.45,14.21Z"></path><path class="cls-32" d="M47.63,14.08a.24.24,0,0,1-.18.29.24.24,0,0,1-.11-.46A.24.24,0,0,1,47.63,14.08Z"></path><path class="cls-33" d="M47.8,14a.23.23,0,0,1-.17.28.24.24,0,0,1-.29-.17.23.23,0,0,1,.18-.28A.22.22,0,0,1,47.8,14Z"></path><path class="cls-34" d="M48,13.83a.23.23,0,0,1-.18.28.22.22,0,0,1-.28-.17.24.24,0,0,1,.17-.28A.25.25,0,0,1,48,13.83Z"></path><path class="cls-35" d="M48.15,13.71A.24.24,0,0,1,48,14a.23.23,0,0,1-.28-.17.22.22,0,0,1,.17-.28A.23.23,0,0,1,48.15,13.71Z"></path><path class="cls-36" d="M48.32,13.58a.22.22,0,0,1-.17.28.22.22,0,0,1-.27-.17.23.23,0,1,1,.44-.11Z"></path><path class="cls-37" d="M48.5,13.46a.23.23,0,0,1-.17.27.23.23,0,1,1,.17-.27Z"></path><path class="cls-38" d="M48.67,13.33a.23.23,0,0,1-.17.28.23.23,0,0,1-.27-.17.23.23,0,0,1,.17-.28A.23.23,0,0,1,48.67,13.33Z"></path><path class="cls-39" d="M48.85,13.21a.23.23,0,0,1-.17.27.23.23,0,0,1-.11-.44A.23.23,0,0,1,48.85,13.21Z"></path><path class="cls-40" d="M49,13.08a.22.22,0,0,1-.16.27.22.22,0,1,1-.11-.43A.22.22,0,0,1,49,13.08Z"></path><path class="cls-41" d="M49.19,13a.22.22,0,0,1-.16.27.23.23,0,0,1-.27-.17.22.22,0,0,1,.16-.27A.23.23,0,0,1,49.19,13Z"></path><path class="cls-42" d="M49.37,12.83a.23.23,0,0,1-.16.27.22.22,0,1,1,.16-.27Z"></path><path class="cls-43" d="M49.54,12.71a.21.21,0,0,1-.16.26.22.22,0,0,1-.27-.16.23.23,0,0,1,.17-.27A.23.23,0,0,1,49.54,12.71Z"></path><path class="cls-44" d="M49.72,12.58a.23.23,0,0,1-.16.27.24.24,0,0,1-.27-.16.22.22,0,1,1,.43-.11Z"></path><path class="cls-45" d="M49.89,12.46a.21.21,0,0,1-.16.26.21.21,0,0,1-.26-.16.21.21,0,0,1,.16-.26A.21.21,0,0,1,49.89,12.46Z"></path><path class="cls-46" d="M50.06,12.33a.21.21,0,0,1-.15.26.22.22,0,0,1-.27-.16.23.23,0,0,1,.16-.26A.21.21,0,0,1,50.06,12.33Z"></path><path class="cls-47" d="M50.24,12.21a.21.21,0,0,1-.16.26.23.23,0,0,1-.26-.16.21.21,0,0,1,.16-.26A.21.21,0,0,1,50.24,12.21Z"></path><path class="cls-48" d="M50.41,12.08a.22.22,0,0,1-.15.26.21.21,0,0,1-.26-.16.22.22,0,0,1,.15-.26A.23.23,0,0,1,50.41,12.08Z"></path><path class="cls-49" d="M50.59,12a.2.2,0,0,1-.16.25.2.2,0,0,1-.25-.15.21.21,0,0,1,.15-.26A.21.21,0,0,1,50.59,12Z"></path><path class="cls-50" d="M50.76,11.83a.2.2,0,0,1-.15.25.21.21,0,0,1-.26-.15.2.2,0,0,1,.16-.25A.21.21,0,0,1,50.76,11.83Z"></path><path class="cls-51" d="M50.94,11.71a.22.22,0,0,1-.16.25.21.21,0,0,1-.1-.41A.21.21,0,0,1,50.94,11.71Z"></path><path class="cls-52" d="M51.11,11.58a.21.21,0,0,1-.15.25.21.21,0,0,1-.1-.4A.21.21,0,0,1,51.11,11.58Z"></path><path class="cls-53" d="M51.28,11.45a.2.2,0,0,1-.15.25.21.21,0,0,1-.25-.15A.21.21,0,0,1,51,11.3.21.21,0,0,1,51.28,11.45Z"></path><path class="cls-54" d="M51.46,11.33a.21.21,0,1,1-.4.1.21.21,0,0,1,.4-.1Z"></path><path class="cls-55" d="M51.63,11.2a.21.21,0,0,1-.15.25.2.2,0,0,1-.09-.39A.2.2,0,0,1,51.63,11.2Z"></path><path class="cls-56" d="M51.81,11.08a.2.2,0,0,1-.15.24.21.21,0,0,1-.25-.14.21.21,0,0,1,.15-.25A.21.21,0,0,1,51.81,11.08Z"></path><path class="cls-57" d="M52,11a.21.21,0,0,1-.15.25.21.21,0,0,1-.24-.15.19.19,0,0,1,.15-.24A.2.2,0,0,1,52,11Z"></path><path class="cls-58" d="M52.15,10.83a.2.2,0,1,1-.38.09.2.2,0,0,1,.14-.24A.2.2,0,0,1,52.15,10.83Z"></path><path class="cls-59" d="M52.33,10.7a.2.2,0,0,1-.15.24.2.2,0,1,1,.15-.24Z"></path><path class="cls-60" d="M52.5,10.58a.2.2,0,1,1-.38.09.19.19,0,0,1,.15-.23A.18.18,0,0,1,52.5,10.58Z"></path><path class="cls-61" d="M52.68,10.45a.2.2,0,0,1-.15.24.19.19,0,0,1-.23-.14.2.2,0,0,1,.14-.24A.21.21,0,0,1,52.68,10.45Z"></path><path class="cls-62" d="M52.85,10.33a.19.19,0,0,1-.37.09.18.18,0,0,1,.14-.23A.18.18,0,0,1,52.85,10.33Z"></path><path class="cls-63" d="M53,10.2a.19.19,0,0,1-.14.24.2.2,0,0,1-.23-.14.21.21,0,0,1,.14-.24A.19.19,0,0,1,53,10.2Z"></path><path class="cls-64" d="M53.2,10.08a.2.2,0,0,1-.14.23.19.19,0,0,1-.23-.14A.19.19,0,0,1,53,9.94.19.19,0,0,1,53.2,10.08Z"></path><path class="cls-65" d="M53.37,10a.18.18,0,0,1-.14.23A.18.18,0,0,1,53,10a.19.19,0,0,1,.13-.23A.19.19,0,0,1,53.37,10Z"></path><path class="cls-66" d="M53.55,9.83a.19.19,0,0,1-.37.09.19.19,0,0,1,.37-.09Z"></path><path class="cls-67" d="M53.72,9.7a.19.19,0,0,1-.14.23.18.18,0,1,1-.08-.36A.17.17,0,0,1,53.72,9.7Z"></path><path class="cls-68" d="M53.9,9.58a.19.19,0,1,1-.23-.14A.2.2,0,0,1,53.9,9.58Z"></path><path class="cls-69" d="M54.07,9.45a.18.18,0,0,1-.14.22.18.18,0,0,1-.22-.13.18.18,0,0,1,.14-.22A.17.17,0,0,1,54.07,9.45Z"></path><path class="cls-70" d="M54.24,9.33a.18.18,0,0,1-.13.22.18.18,0,0,1-.22-.14A.2.2,0,0,1,54,9.19.18.18,0,0,1,54.24,9.33Z"></path><path class="cls-71" d="M54.42,9.2a.19.19,0,0,1-.13.22.18.18,0,0,1-.22-.13.17.17,0,0,1,.13-.22A.19.19,0,0,1,54.42,9.2Z"></path><path class="cls-72" d="M54.59,9.08a.17.17,0,0,1-.13.21.18.18,0,0,1-.22-.13A.18.18,0,0,1,54.38,9,.17.17,0,0,1,54.59,9.08Z"></path><path class="cls-73" d="M54.77,9a.19.19,0,0,1-.13.22A.19.19,0,0,1,54.42,9,.18.18,0,1,1,54.77,9Z"></path><path class="cls-74" d="M54.94,8.83a.17.17,0,1,1-.34.08.17.17,0,0,1,.34-.08Z"></path><path class="cls-75" d="M55.11,8.7a.16.16,0,0,1-.12.21.18.18,0,0,1-.22-.12.19.19,0,0,1,.13-.22A.18.18,0,0,1,55.11,8.7Z"></path><path class="cls-76" d="M55.29,8.58a.19.19,0,0,1-.13.21.17.17,0,1,1-.08-.34A.17.17,0,0,1,55.29,8.58Z"></path><path class="cls-77" d="M55.46,8.45a.17.17,0,0,1-.12.21.17.17,0,0,1-.21-.13.17.17,0,0,1,.33-.08Z"></path><path class="cls-78" d="M55.64,8.33a.17.17,0,0,1-.13.2.16.16,0,0,1-.2-.12.17.17,0,0,1,.12-.21A.18.18,0,0,1,55.64,8.33Z"></path><path class="cls-79" d="M55.81,8.2a.17.17,0,1,1-.33.08.17.17,0,0,1,.13-.2A.16.16,0,0,1,55.81,8.2Z"></path><path class="cls-80" d="M56,8.08a.16.16,0,0,1-.12.2.16.16,0,0,1-.2-.12A.18.18,0,0,1,55.78,8,.17.17,0,0,1,56,8.08Z"></path><path class="cls-81" d="M56.16,8a.16.16,0,1,1-.32.08.16.16,0,0,1,.12-.2A.16.16,0,0,1,56.16,8Z"></path></g><path class="cls-82" d="m47.42 22.12a1.94 1.94 0 1 1-1.94-1.94 1.93 1.93 0 0 1 1.94 1.94z"></path><rect class="cls-3" x="79.57" y="28.78" width=".42" height=".42"></rect><rect class="cls-3" x="97.95" y="32.68" width=".55" height=".55"></rect><rect class="cls-3" x="79.06" y="23.82" width=".28" height=".28"></rect><rect class="cls-3" x="89.24" y="22.65" width=".28" height=".28"></rect><rect class="cls-3" x="69.35" y="4.41" width=".28" height=".28"></rect><rect class="cls-3" x="84.32" y="4.75" width=".28" height=".28"></rect><rect class="cls-3" x="82.01" y="15.97" width=".28" height=".28"></rect><rect class="cls-3" x="45.69" y="26.27" width=".27" height=".27"></rect><rect class="cls-3" x="46.82" y="36.14" width=".27" height=".27"></rect><rect class="cls-3" x="64.51" y="16.86" width=".27" height=".27"></rect><rect class="cls-3" x="64.19" y="31.38" width=".27" height=".27"></rect><rect class="cls-3" x="53.31" y="29.14" width=".27" height=".27"></rect><rect class="cls-3" x="66.09" y="65.15" width=".28" height=".28"></rect><rect class="cls-3" x="76.27" y="63.97" width=".28" height=".28"></rect><rect class="cls-3" x="56.38" y="45.73" width=".28" height=".28"></rect><rect class="cls-3" x="71.35" y="46.07" width=".28" height=".28"></rect><rect class="cls-3" x="69.04" y="57.29" width=".28" height=".28"></rect><rect class="cls-3" x="87.93" y="39.93" width=".42" height=".42"></rect><rect class="cls-3" x="98.76" y="30.95" width=".42" height=".42"></rect><rect class="cls-3" x="63.78" y="28.78" width=".42" height=".42"></rect><rect class="cls-3" x="89.59" y="35.85" width=".16" height=".16"></rect><rect class="cls-3" x="88.91" y="30" width=".16" height=".16"></rect><rect class="cls-3" x="78.41" y="41.44" width=".16" height=".16"></rect><rect class="cls-3" x="78.61" y="32.82" width=".16" height=".16"></rect><rect class="cls-3" x="85.07" y="34.15" width=".16" height=".16"></rect><rect class="cls-3" x="90.85" y="48.39" width=".16" height=".16"></rect><rect class="cls-3" x="90.18" y="42.53" width=".16" height=".16"></rect><rect class="cls-3" x="79.68" y="53.98" width=".16" height=".16"></rect><rect class="cls-3" x="79.87" y="45.36" width=".16" height=".16"></rect><rect class="cls-3" x="86.33" y="46.69" width=".16" height=".16"></rect><rect class="cls-3" transform="translate(12.73 77.43) rotate(-43.73)" x="102.8" y="22.8" width=".1" height=".1"></rect><polygon class="cls-3" points="100.2 20.69 100.1 20.62 100.2 20.55 100.2 20.62"></polygon><rect class="cls-3" transform="translate(7.32 77.83) rotate(-43.84)" x="100.3" y="29.78" width=".1" height=".1"></rect><polygon class="cls-3" points="96.9 26.12 96.84 26.05 96.91 25.99 96.97 26.06"></polygon><polygon class="cls-3" points="100.2 24.05 100.2 23.98 100.2 23.91 100.3 23.98"></polygon><circle class="cls-83" cx="95.63" cy="28.59" r=".85"></circle><circle class="cls-84" transform="translate(39.92 104.7) rotate(-84.34)" cx="77.75" cy="30.3" r="10.14"></circle><path class="cls-85" d="M79.57,20.33a10.32,10.32,0,0,1-2.2,1.79A15.89,15.89,0,0,1,72.68,24c-1.12.26-2.26.49-3.4.69a10.16,10.16,0,0,0-1.45,3.45c5.42-1.23,10.79-2.84,14.72-6.81A10.14,10.14,0,0,0,79.57,20.33Z"></path><path class="cls-86" d="M70.83,37.71c1-.27,2-.52,3.07-.77,4.64-1.13,9.36-2.14,13.67-4.11a10.08,10.08,0,0,0,.32-2.53,8.77,8.77,0,0,0-.06-1c-1,.43-2.07.81-3.13,1.15a96.62,96.62,0,0,1-12.18,3.22c-1.35.25-2.71.48-4.07.7A10.07,10.07,0,0,0,70.83,37.71Z"></path><path class="cls-85" d="M81.74,37.66c1.31-.37,2.63-.71,4-1.06A10.3,10.3,0,0,0,87,34.42c-1.8.46-3.63.88-5.44,1.33-3.31.81-6.59,1.7-9.84,2.71a10,10,0,0,0,3.93,1.76A28.07,28.07,0,0,1,81.74,37.66Z"></path><path class="cls-86" d="M70.19,33.59a75.45,75.45,0,0,0,10.64-3.45,30.83,30.83,0,0,0,6.28-3.74,10,10,0,0,0-1.61-2.62,22.3,22.3,0,0,1-2.23,1,69.8,69.8,0,0,1-10.55,2.81c-1.66.36-3.32.72-5,1.1a9.46,9.46,0,0,0-.13,1.61,10.1,10.1,0,0,0,.73,3.78Z"></path><path class="cls-87" d="m86.61 23a2.91 2.91 0 1 1-2.9-2.9 2.9 2.9 0 0 1 2.9 2.9z"></path><path class="cls-3" d="M68.17,52.19a.41.41,0,0,1-.3.51.41.41,0,0,1-.51-.29.42.42,0,0,1,.81-.22Z"></path><path class="cls-31" d="M68.47,52a.42.42,0,0,1-.29.51.42.42,0,0,1-.52-.29.42.42,0,0,1,.81-.22Z"></path><path class="cls-32" d="M68.77,51.73a.41.41,0,0,1-.29.51.41.41,0,1,1,.29-.51Z"></path><path class="cls-33" d="M69.07,51.51a.41.41,0,0,1-.29.5.41.41,0,1,1,.29-.5Z"></path><path class="cls-34" d="M69.37,51.28a.41.41,0,0,1-.29.5.4.4,0,0,1-.5-.28.41.41,0,1,1,.79-.22Z"></path><path class="cls-35" d="M69.67,51.05a.41.41,0,0,1-.29.5.4.4,0,0,1-.5-.28.41.41,0,0,1,.29-.5A.41.41,0,0,1,69.67,51.05Z"></path><path class="cls-36" d="M70,50.83a.39.39,0,0,1-.28.49.4.4,0,0,1-.5-.28.41.41,0,0,1,.29-.5A.4.4,0,0,1,70,50.83Z"></path><path class="cls-37" d="M70.26,50.6a.4.4,0,0,1-.77.21.4.4,0,0,1,.28-.49A.4.4,0,0,1,70.26,50.6Z"></path><path class="cls-38" d="M70.56,50.37a.4.4,0,1,1-.77.21.4.4,0,0,1,.28-.49A.39.39,0,0,1,70.56,50.37Z"></path><path class="cls-39" d="M70.86,50.15a.38.38,0,0,1-.28.48.39.39,0,0,1-.21-.76A.39.39,0,0,1,70.86,50.15Z"></path><path class="cls-40" d="M71.16,49.92a.39.39,0,0,1-.27.48.4.4,0,0,1-.49-.27.4.4,0,0,1,.28-.49A.39.39,0,0,1,71.16,49.92Z"></path><path class="cls-41" d="M71.46,49.69a.39.39,0,0,1-.27.48.39.39,0,1,1-.21-.75A.39.39,0,0,1,71.46,49.69Z"></path><path class="cls-42" d="M71.76,49.46a.38.38,0,0,1-.27.48.39.39,0,1,1-.21-.75A.39.39,0,0,1,71.76,49.46Z"></path><path class="cls-43" d="M72.06,49.24a.39.39,0,0,1-.75.2.39.39,0,0,1,.27-.47A.39.39,0,0,1,72.06,49.24Z"></path><path class="cls-44" d="M72.36,49a.39.39,0,0,1-.27.47.37.37,0,0,1-.47-.27.38.38,0,0,1,.27-.47A.39.39,0,0,1,72.36,49Z"></path><path class="cls-45" d="M72.66,48.78a.39.39,0,0,1-.27.47.38.38,0,1,1,.27-.47Z"></path><path class="cls-46" d="M73,48.56a.38.38,0,0,1-.27.46.37.37,0,0,1-.46-.26.37.37,0,0,1,.26-.47A.38.38,0,0,1,73,48.56Z"></path><path class="cls-47" d="M73.26,48.33a.38.38,0,0,1-.27.46.37.37,0,0,1-.46-.26.39.39,0,0,1,.26-.47A.4.4,0,0,1,73.26,48.33Z"></path><path class="cls-48" d="M73.56,48.1a.38.38,0,0,1-.27.46.37.37,0,0,1-.46-.26.38.38,0,0,1,.27-.46A.37.37,0,0,1,73.56,48.1Z"></path><path class="cls-49" d="M73.85,47.87a.37.37,0,1,1-.71.2.37.37,0,1,1,.71-.2Z"></path><path class="cls-50" d="M74.15,47.65a.36.36,0,0,1-.25.45.38.38,0,0,1-.46-.26.37.37,0,0,1,.26-.45A.36.36,0,0,1,74.15,47.65Z"></path><path class="cls-51" d="M74.45,47.42a.36.36,0,0,1-.25.45.37.37,0,1,1,.25-.45Z"></path><path class="cls-52" d="M74.75,47.19a.36.36,0,0,1-.25.45.36.36,0,0,1-.45-.26.36.36,0,0,1,.26-.44A.35.35,0,0,1,74.75,47.19Z"></path><path class="cls-53" d="M75.05,47a.36.36,0,0,1-.25.44.36.36,0,1,1-.19-.7A.36.36,0,0,1,75.05,47Z"></path><path class="cls-54" d="M75.35,46.74a.36.36,0,1,1-.44-.25A.35.35,0,0,1,75.35,46.74Z"></path><path class="cls-55" d="M75.65,46.51a.36.36,0,1,1-.44-.25A.36.36,0,0,1,75.65,46.51Z"></path><path class="cls-56" d="M76,46.28a.36.36,0,0,1-.25.44.35.35,0,1,1,.25-.44Z"></path><path class="cls-57" d="M76.25,46.06a.35.35,0,1,1-.43-.25A.35.35,0,0,1,76.25,46.06Z"></path><path class="cls-58" d="M76.55,45.83a.35.35,0,0,1-.25.43.34.34,0,0,1-.42-.25.33.33,0,0,1,.24-.42A.34.34,0,0,1,76.55,45.83Z"></path><path class="cls-59" d="M76.85,45.6a.35.35,0,0,1-.25.43.34.34,0,0,1-.42-.24.35.35,0,1,1,.67-.19Z"></path><path class="cls-60" d="M77.15,45.38a.34.34,0,0,1-.24.42.35.35,0,0,1-.43-.24.35.35,0,0,1,.67-.18Z"></path><path class="cls-61" d="M77.45,45.15a.34.34,0,1,1-.42-.24A.34.34,0,0,1,77.45,45.15Z"></path><path class="cls-62" d="M77.75,44.92a.35.35,0,0,1-.24.42.34.34,0,1,1-.18-.66A.35.35,0,0,1,77.75,44.92Z"></path><path class="cls-63" d="M78,44.69a.34.34,0,0,1-.23.42.33.33,0,0,1-.41-.24.33.33,0,0,1,.64-.18Z"></path><path class="cls-64" d="M78.34,44.47a.33.33,0,0,1-.23.41.33.33,0,0,1-.41-.24.34.34,0,0,1,.23-.41A.34.34,0,0,1,78.34,44.47Z"></path><path class="cls-65" d="M78.64,44.24a.33.33,0,0,1-.23.41.34.34,0,0,1-.41-.23.34.34,0,0,1,.24-.41A.32.32,0,0,1,78.64,44.24Z"></path><path class="cls-66" d="M78.94,44a.33.33,0,0,1-.23.41.34.34,0,0,1-.4-.23.33.33,0,0,1,.23-.41A.34.34,0,0,1,78.94,44Z"></path><path class="cls-67" d="M79.24,43.79a.32.32,0,0,1-.23.4.34.34,0,0,1-.4-.23.33.33,0,0,1,.23-.4A.32.32,0,0,1,79.24,43.79Z"></path><path class="cls-68" d="M79.54,43.56a.32.32,0,1,1-.4-.23A.33.33,0,0,1,79.54,43.56Z"></path><path class="cls-69" d="M79.84,43.33a.32.32,0,0,1-.22.4.33.33,0,0,1-.4-.23.31.31,0,0,1,.23-.39A.31.31,0,0,1,79.84,43.33Z"></path><path class="cls-70" d="M80.14,43.1a.32.32,0,0,1-.22.4.34.34,0,0,1-.4-.23.32.32,0,0,1,.62-.17Z"></path><path class="cls-71" d="M80.44,42.88a.32.32,0,0,1-.22.39.33.33,0,0,1-.39-.23.3.3,0,0,1,.22-.38A.31.31,0,0,1,80.44,42.88Z"></path><path class="cls-72" d="M80.74,42.65a.32.32,0,0,1-.22.39.32.32,0,0,1-.17-.61A.32.32,0,0,1,80.74,42.65Z"></path><path class="cls-73" d="M81,42.42a.32.32,0,0,1-.22.39.31.31,0,0,1-.38-.22.3.3,0,0,1,.22-.38A.31.31,0,0,1,81,42.42Z"></path><path class="cls-74" d="M81.34,42.2A.31.31,0,1,1,81,42,.32.32,0,0,1,81.34,42.2Z"></path><path class="cls-75" d="M81.64,42a.31.31,0,0,1-.22.37.3.3,0,1,1-.16-.58A.31.31,0,0,1,81.64,42Z"></path><path class="cls-76" d="M81.93,41.74a.3.3,0,0,1-.58.16.3.3,0,1,1,.58-.16Z"></path><path class="cls-77" d="M82.23,41.52a.28.28,0,0,1-.21.36.3.3,0,0,1-.37-.21.3.3,0,1,1,.58-.15Z"></path><path class="cls-78" d="M82.53,41.29a.28.28,0,0,1-.21.36.29.29,0,0,1-.36-.2.3.3,0,1,1,.57-.16Z"></path><path class="cls-79" d="M82.83,41.06a.29.29,0,0,1-.2.36.3.3,0,0,1-.37-.2.31.31,0,0,1,.21-.37A.29.29,0,0,1,82.83,41.06Z"></path><path class="cls-80" d="M83.13,40.83a.29.29,0,0,1-.2.36.29.29,0,0,1-.16-.56A.29.29,0,0,1,83.13,40.83Z"></path><path class="cls-81" d="M83.43,40.61a.29.29,0,0,1-.2.35.28.28,0,0,1-.36-.2.3.3,0,0,1,.2-.36A.29.29,0,0,1,83.43,40.61Z"></path><g class="cls-88"><path class="cls-3" d="M82.44,47.42a.29.29,0,0,1-.19.36.3.3,0,0,1-.37-.19.3.3,0,0,1,.2-.37A.29.29,0,0,1,82.44,47.42Z"></path><path class="cls-31" d="M82.64,47.25a.28.28,0,0,1-.19.36.28.28,0,0,1-.36-.19.29.29,0,0,1,.19-.36A.28.28,0,0,1,82.64,47.25Z"></path><path class="cls-32" d="M82.85,47.09a.29.29,0,0,1-.2.36.28.28,0,0,1-.35-.19.27.27,0,0,1,.19-.36A.29.29,0,0,1,82.85,47.09Z"></path><path class="cls-33" d="M83.05,46.93a.28.28,0,0,1-.19.35.29.29,0,0,1-.36-.19.28.28,0,0,1,.19-.35A.29.29,0,0,1,83.05,46.93Z"></path><path class="cls-34" d="M83.25,46.76a.29.29,0,0,1-.19.36.28.28,0,0,1-.35-.19.29.29,0,0,1,.19-.36A.28.28,0,0,1,83.25,46.76Z"></path><path class="cls-35" d="M83.45,46.6a.27.27,0,0,1-.18.35.28.28,0,1,1-.17-.54A.28.28,0,0,1,83.45,46.6Z"></path><path class="cls-36" d="M83.66,46.44a.29.29,0,0,1-.19.35.29.29,0,0,1-.35-.19.28.28,0,0,1,.19-.35A.28.28,0,0,1,83.66,46.44Z"></path><path class="cls-37" d="M83.86,46.27a.28.28,0,1,1-.35-.18A.28.28,0,0,1,83.86,46.27Z"></path><path class="cls-38" d="M84.06,46.11a.27.27,0,0,1-.18.35.29.29,0,0,1-.35-.19.27.27,0,0,1,.19-.34A.26.26,0,0,1,84.06,46.11Z"></path><path class="cls-39" d="M84.27,46a.28.28,0,0,1-.53.16.29.29,0,0,1,.18-.35A.29.29,0,0,1,84.27,46Z"></path><path class="cls-40" d="M84.47,45.78a.29.29,0,0,1-.18.35.27.27,0,0,1-.34-.19.27.27,0,0,1,.18-.34A.28.28,0,0,1,84.47,45.78Z"></path><path class="cls-41" d="M84.67,45.62a.26.26,0,0,1-.18.34.28.28,0,0,1-.34-.18.27.27,0,1,1,.52-.16Z"></path><path class="cls-42" d="M84.88,45.46a.27.27,0,0,1-.18.33.26.26,0,0,1-.34-.18.27.27,0,0,1,.52-.15Z"></path><path class="cls-43" d="M85.08,45.29a.27.27,0,0,1-.18.34.27.27,0,0,1-.33-.18.27.27,0,0,1,.51-.16Z"></path><path class="cls-44" d="M85.28,45.13a.25.25,0,0,1-.17.33.26.26,0,0,1-.34-.17A.28.28,0,0,1,85,45,.27.27,0,0,1,85.28,45.13Z"></path><path class="cls-45" d="M85.49,45a.27.27,0,1,1-.33-.18A.27.27,0,0,1,85.49,45Z"></path><path class="cls-46" d="M85.69,44.8a.27.27,0,0,1-.18.33.26.26,0,0,1-.15-.5A.27.27,0,0,1,85.69,44.8Z"></path><path class="cls-47" d="M85.89,44.64a.26.26,0,0,1-.17.33.27.27,0,0,1-.33-.18.26.26,0,0,1,.18-.32A.25.25,0,0,1,85.89,44.64Z"></path><path class="cls-48" d="M86.1,44.48a.26.26,0,0,1-.18.32.26.26,0,0,1-.32-.17.27.27,0,0,1,.17-.33A.27.27,0,0,1,86.1,44.48Z"></path><path class="cls-49" d="M86.3,44.31a.27.27,0,0,1-.17.33.26.26,0,0,1-.32-.18.25.25,0,0,1,.17-.32A.26.26,0,0,1,86.3,44.31Z"></path><path class="cls-50" d="M86.5,44.15a.25.25,0,0,1-.17.32A.26.26,0,0,1,86,44.3a.26.26,0,0,1,.49-.15Z"></path><path class="cls-51" d="M86.71,44a.27.27,0,0,1-.17.32.26.26,0,0,1-.32-.17.25.25,0,0,1,.17-.32A.26.26,0,0,1,86.71,44Z"></path><path class="cls-52" d="M86.91,43.83a.25.25,0,0,1-.17.31.25.25,0,0,1-.15-.48A.25.25,0,0,1,86.91,43.83Z"></path><path class="cls-53" d="M87.11,43.66a.25.25,0,0,1-.48.15.26.26,0,0,1,.17-.32A.25.25,0,0,1,87.11,43.66Z"></path><path class="cls-54" d="M87.32,43.5a.26.26,0,0,1-.17.31.25.25,0,0,1-.31-.17.25.25,0,0,1,.16-.31A.26.26,0,0,1,87.32,43.5Z"></path><path class="cls-55" d="M87.52,43.34a.24.24,0,0,1-.17.3.25.25,0,0,1-.31-.16.26.26,0,0,1,.17-.31A.24.24,0,0,1,87.52,43.34Z"></path><path class="cls-56" d="M87.72,43.17a.25.25,0,0,1-.16.31.25.25,0,0,1-.31-.17.25.25,0,0,1,.47-.14Z"></path><path class="cls-57" d="M87.92,43a.24.24,0,1,1-.3-.16A.23.23,0,0,1,87.92,43Z"></path><path class="cls-58" d="M88.13,42.85a.25.25,0,0,1-.16.3.26.26,0,0,1-.31-.16.26.26,0,0,1,.17-.31A.26.26,0,0,1,88.13,42.85Z"></path><path class="cls-59" d="M88.33,42.68a.24.24,0,1,1-.3-.16A.24.24,0,0,1,88.33,42.68Z"></path><path class="cls-60" d="M88.53,42.52a.24.24,0,0,1-.16.3.25.25,0,0,1-.29-.16.24.24,0,0,1,.16-.3A.23.23,0,0,1,88.53,42.52Z"></path><path class="cls-61" d="M88.74,42.36a.24.24,0,0,1-.46.13.25.25,0,0,1,.16-.29A.24.24,0,0,1,88.74,42.36Z"></path><path class="cls-62" d="M88.94,42.19a.24.24,0,0,1-.16.3.25.25,0,0,1-.29-.16.22.22,0,0,1,.16-.29A.23.23,0,0,1,88.94,42.19Z"></path><path class="cls-63" d="M89.14,42a.23.23,0,0,1-.15.29.22.22,0,0,1-.29-.16.23.23,0,0,1,.15-.29A.24.24,0,0,1,89.14,42Z"></path><path class="cls-64" d="M89.35,41.87a.23.23,0,0,1-.45.13.25.25,0,0,1,.16-.29A.23.23,0,0,1,89.35,41.87Z"></path><path class="cls-65" d="M89.55,41.7a.23.23,0,0,1-.44.14.23.23,0,0,1,.15-.29A.23.23,0,0,1,89.55,41.7Z"></path><path class="cls-66" d="M89.75,41.54a.22.22,0,1,1-.28-.15A.22.22,0,0,1,89.75,41.54Z"></path><path class="cls-67" d="M90,41.38a.23.23,0,0,1-.44.13.23.23,0,0,1,.15-.28A.23.23,0,0,1,90,41.38Z"></path><path class="cls-68" d="M90.16,41.21a.22.22,0,0,1-.15.28.22.22,0,1,1-.13-.43A.23.23,0,0,1,90.16,41.21Z"></path><path class="cls-69" d="M90.36,41.05a.22.22,0,0,1-.15.28.22.22,0,0,1-.27-.15.22.22,0,1,1,.42-.13Z"></path><path class="cls-70" d="M90.57,40.89a.22.22,0,0,1-.15.27.22.22,0,0,1-.28-.15.22.22,0,0,1,.15-.27A.22.22,0,0,1,90.57,40.89Z"></path><path class="cls-71" d="M90.77,40.72a.23.23,0,0,1-.15.28.22.22,0,0,1-.27-.15.21.21,0,0,1,.15-.27A.22.22,0,0,1,90.77,40.72Z"></path><path class="cls-72" d="M91,40.56a.21.21,0,0,1-.14.27.22.22,0,1,1,.14-.27Z"></path><path class="cls-73" d="M91.18,40.4a.22.22,0,1,1-.27-.15A.22.22,0,0,1,91.18,40.4Z"></path><path class="cls-74" d="M91.38,40.23a.22.22,0,1,1-.41.13.21.21,0,0,1,.14-.27A.23.23,0,0,1,91.38,40.23Z"></path><path class="cls-75" d="M91.58,40.07a.2.2,0,0,1-.14.26.21.21,0,0,1-.12-.4A.21.21,0,0,1,91.58,40.07Z"></path><path class="cls-76" d="M91.78,39.91a.2.2,0,0,1-.14.26.22.22,0,0,1-.26-.14.21.21,0,0,1,.14-.26A.2.2,0,0,1,91.78,39.91Z"></path><path class="cls-77" d="M92,39.74a.21.21,0,0,1-.14.26.2.2,0,0,1-.26-.14.21.21,0,0,1,.14-.26A.22.22,0,0,1,92,39.74Z"></path><path class="cls-78" d="M92.19,39.58a.21.21,0,0,1-.14.26.21.21,0,0,1-.12-.4A.21.21,0,0,1,92.19,39.58Z"></path><path class="cls-79" d="M92.39,39.42a.19.19,0,0,1-.13.25.21.21,0,0,1-.26-.13.21.21,0,0,1,.14-.26A.2.2,0,0,1,92.39,39.42Z"></path><path class="cls-80" d="M92.6,39.25a.22.22,0,0,1-.14.26.2.2,0,0,1-.25-.14.2.2,0,0,1,.13-.25A.22.22,0,0,1,92.6,39.25Z"></path><path class="cls-81" d="M92.8,39.09a.2.2,0,0,1-.13.25.22.22,0,0,1-.26-.13.2.2,0,0,1,.14-.25A.19.19,0,0,1,92.8,39.09Z"></path></g><g class="cls-89"><path class="cls-3" d="M35.39,37.61c-.4-4.36,5.63-9.4,13.36-11.8,6.92-2.15,14.13-1.88,17.5.75-3-3.8-11.75-4.37-20.13-1.77s-15.37,8.13-15.3,12.94c.08,5.58,9.15,8.1,20.45,4.83C42.55,44.26,35.81,42,35.39,37.61Z"></path></g><g class="cls-89"><path class="cls-3" d="M60,29.67c1.73,2.71-1.72,6.89-8,8.89-5.72,1.82-10.6.81-11.48-1.86.11,3.91,6.33,5.75,13.86,3.35s11.24-7.39,8.88-10.55c-1.9-2.56-7.34-3.08-12.55-1.58C54.75,27,58.68,27.63,60,29.67Z"></path></g></g></g></g></svg>