<svg viewBox="0 0 192 192" xmlns="http://www.w3.org/2000/svg" width="192" height="192"><g transform="rotate(0 3.14 2.18) translate(22.764172413860706 24.763165226385595) scale(1.4538129545635592)"><defs><style>.cls-1{fill:#d1d3d4;}.cls-2{fill:#fff;}.cls-3{fill:#00a79d;}.cls-4{fill:#008d84;}</style></defs><path class="cls-1" d="m55.8 80.22v-7a4.11 4.11 0 0 0-2.68-3.84l-2.72-1.25v16c2.99-0.01 5.4-1.76 5.4-3.91z"></path><path class="cls-1" d="M52.54,22.36c1.8.83,2.86-.06,2.37-2L51.3,6.49c-.23-.89-.56-1.36-.9-1.43V68.13l2.13,1A2.13,2.13,0,0,0,55.8,67V58.65a6.16,6.16,0,0,0-3.27-5.11,2.13,2.13,0,0,0,3.27-2.09V43.06a6.16,6.16,0,0,0-3.27-5.11,2.13,2.13,0,0,0,3.27-2.09V27.47A6.16,6.16,0,0,0,52.54,22.36Z"></path><path class="cls-2" d="M50.4,5.05c-.4-.08-.82.35-1.16,1.36l-3.08,9.06a4.1,4.1,0,0,0,2.11,4.92A2.13,2.13,0,0,0,45,22.48v8.39A6.15,6.15,0,0,0,48.27,36,2.13,2.13,0,0,0,45,38.06v8.39a6.16,6.16,0,0,0,3.27,5.11A2.13,2.13,0,0,0,45,53.65V62a6.16,6.16,0,0,0,3.26,5.11l-.59-.27c-1.47-.68-2.68.38-2.68,2.36v11c0,2.15,2.42,3.9,5.4,3.9Z"></path><path class="cls-3" d="M53.79,70.92a4.49,4.49,0,0,1-1.89-.44l-4.27-2A7.66,7.66,0,0,1,43.5,62V53.65c0-2.29,1.44-3.89,3.51-3.89a4.49,4.49,0,0,1,1.89.44l4.27,2a7.66,7.66,0,0,1,4.14,6.47V67C57.3,69.32,55.86,70.92,53.79,70.92ZM47,52.76c-.34,0-.51.3-.51.89V62a4.64,4.64,0,0,0,2.4,3.75l4.27,2a1.52,1.52,0,0,0,.63.17c.34,0,.51-.3.51-.89V58.65a4.65,4.65,0,0,0-2.4-3.75l-4.27-2A1.52,1.52,0,0,0,47,52.76Z"></path><path class="cls-3" d="M53.79,55.34a4.49,4.49,0,0,1-1.89-.44l-4.27-2a7.66,7.66,0,0,1-4.14-6.47V38.06c0-2.29,1.44-3.89,3.51-3.89a4.49,4.49,0,0,1,1.89.44l4.27,2a7.66,7.66,0,0,1,4.14,6.47v8.39C57.3,53.74,55.86,55.34,53.79,55.34ZM47,37.17c-.34,0-.51.3-.51.89v8.39a4.64,4.64,0,0,0,2.4,3.75l4.27,2a1.52,1.52,0,0,0,.63.17c.34,0,.51-.3.51-.89V43.06a4.65,4.65,0,0,0-2.4-3.75l-4.27-2A1.53,1.53,0,0,0,47,37.17Z"></path><path class="cls-3" d="M53.79,39.75a4.49,4.49,0,0,1-1.89-.44l-4.27-2a7.66,7.66,0,0,1-4.14-6.47V22.48c0-2.29,1.44-3.89,3.51-3.89A4.49,4.49,0,0,1,48.9,19l4.27,2a7.67,7.67,0,0,1,4.14,6.47v8.39C57.3,38.15,55.86,39.75,53.79,39.75ZM47,21.58c-.34,0-.51.3-.51.89v8.39a4.64,4.64,0,0,0,2.4,3.75l4.27,2a1.52,1.52,0,0,0,.63.17c.34,0,.51-.3.51-.89V27.47a4.65,4.65,0,0,0-2.4-3.75l-4.27-2A1.51,1.51,0,0,0,47,21.58Z"></path><path class="cls-3" d="M53.76,24.17h0a4.42,4.42,0,0,1-1.85-.45l-4.27-2A5.63,5.63,0,0,1,44.74,15l3.08-9.06c.67-2,1.72-2.4,2.49-2.4S52.2,4,52.76,6.11L56.36,20a3.49,3.49,0,0,1-.43,3.15A2.67,2.67,0,0,1,53.76,24.17ZM50.21,8.23l-2.63,7.71A2.6,2.6,0,0,0,48.9,19l4.27,2a2.34,2.34,0,0,0,.35.13,2.42,2.42,0,0,0-.07-.37Z"></path><path class="cls-3" d="M50.4,85.62c-3.87,0-6.9-2.37-6.9-5.4v-11c0-2.39,1.36-4.07,3.31-4.07a3.56,3.56,0,0,1,1.5.34L53.76,68a5.59,5.59,0,0,1,3.55,5.2v7C57.3,83.25,54.27,85.62,50.4,85.62ZM46.81,68.17c-.09,0-.31.37-.31,1.07v11c0,1.14,1.6,2.4,3.9,2.4s3.9-1.27,3.9-2.4v-7a2.57,2.57,0,0,0-1.81-2.48L47,68.23A.58.58,0,0,0,46.81,68.17Z"></path><path class="cls-1" d="M6.94,50C1.2,63.56,3.38,81.51,10,93.43A19.61,19.61,0,0,0,22.58,93a19.61,19.61,0,0,0,9.87-7.74C29.9,71.86,20,56.7,6.94,50Z"></path><path class="cls-4" d="M20.87,88.31a15,15,0,0,1-7.45.78A49.88,49.88,0,0,1,9.73,57.7,49.88,49.88,0,0,1,27.08,84.13,15,15,0,0,1,20.87,88.31Z"></path><path class="cls-3" d="M13.42,89.1a15,15,0,0,0,7.45-.78,16,16,0,0,0,3.45-1.76A60.78,60.78,0,0,0,9.14,60.92,50.27,50.27,0,0,0,13.42,89.1Z"></path><path class="cls-1" d="M93.86,50c5.75,13.51,3.56,31.46-3.1,43.38a20.18,20.18,0,0,1-22.4-8.15C70.9,71.86,80.77,56.7,93.86,50Z"></path><path class="cls-4" d="m79.93 88.31a15 15 0 0 0 7.45 0.78 49.88 49.88 0 0 0 3.7-31.4 49.88 49.88 0 0 0-17.36 26.44 15 15 0 0 0 6.21 4.18z"></path><path class="cls-3" d="M87.38,89.1a15,15,0,0,1-7.45-.78,16,16,0,0,1-3.45-1.76A60.78,60.78,0,0,1,91.66,60.92,50.26,50.26,0,0,1,87.38,89.1Z"></path></g></svg>