<svg viewBox="0 0 192 192" xmlns="http://www.w3.org/2000/svg" width="192" height="192"><g transform="rotate(0 3.14 2.18) translate(27.19966894680151 21.117871726629275) scale(1.5204493050430605)"><defs><style>.cls-1{fill:#c3996c;}.cls-2{fill:#3bb54a;}.cls-3{fill:#299f48;}.cls-4{fill:#c49b6e;}.cls-5{fill:#39a048;}.cls-6{fill:#c3996d;}.cls-7{fill:#c59c6f;}.cls-8{fill:#e0b386;}.cls-9{fill:#d1ab7c;}.cls-10{fill:#ddb183;}.cls-11{fill:#34a549;}.cls-12{fill:#35a348;}.cls-13{fill:#dbaf82;}.cls-14{fill:#9f734d;}.cls-15{fill:#e6c5a1;}.cls-16{fill:#a67a54;}.cls-17{fill:#cda477;}.cls-18{fill:#77c379;}.cls-19{fill:#53b155;}.cls-20{fill:#dec8af;}.cls-21{fill:#ddc6ad;}.cls-22{fill:#cdbaab;}.cls-23{fill:#2da349;}.cls-24{fill:#8c623f;}.cls-25{fill:#30a649;}.cls-26{fill:#8b603e;}.cls-27{fill:#deb285;}.cls-28{fill:#e0b385;}.cls-29{fill:#d7ab7e;}.cls-30{fill:#deb283;}.cls-31{fill:#c49b6d;}.cls-32{fill:#c59c6e;}.cls-33{fill:#dcb184;}.cls-34{fill:#9e734e;}.cls-35{fill:#a1774f;}.cls-36{fill:#f2e8de;}.cls-37{fill:#a0744e;}.cls-38{fill:#dbaf81;}.cls-39{fill:#996e49;}.cls-40{fill:#8d603e;}.cls-41{fill:#9d704b;}.cls-42{fill:#e0b285;}.cls-43{fill:#916542;}.cls-44{fill:#be9769;}.cls-45{fill:#dfb283;}.cls-46{fill:#37a048;}.cls-47{fill:#36a248;}.cls-48{fill:#5c904b;}.cls-49{fill:#e0d7c3;}.cls-50{fill:#986c48;}.cls-51{fill:#dbb082;}.cls-52{fill:#cca274;}.cls-53{fill:#5ba050;}.cls-54{fill:#47a14a;}.cls-55{fill:#897f4b;}.cls-56{fill:#c6d3b3;}</style></defs><path class="cls-1" d="M23.84,50.35A9.47,9.47,0,0,0,27,45.69c2.28-2,5.19-2.91,7.7-4.5a1,1,0,0,0,.53-.82c-.37-1.71-1.56-1.09-2.55-.85-3.17.76-5.95,2.46-8.91,3.73A5,5,0,0,0,21.28,45c-.43,1.36-1.51,2.39-1.9,3.77-.11.32-.23.64-.32,1-.21,1.23-.89,2.44-.23,3.73.72,0,.71,0,.33.92-.23.55-.34,1.14-.52,1.7a33.52,33.52,0,0,0-.74,3.72l.17-.08.16.85c-.14.45.09,1-.49,1.33l-.21-.73a1.39,1.39,0,0,1-.27.41c-.5.33-.82,1.3-1.65.31-.42-.5-1.14-.9-1.62.1a20,20,0,0,0,.59,8.62c-1.9-5.75-2.21-7.81-1.75-12.83-.35-1.08-.11-2.57-1.85-2.71-.92,2.32-2.24,2.9-2.59,3.46,1.75,6.92,6,19.17,10.31,24.88C20.31,85.55,22,87.83,24.62,89c-.88-2.42-2.8-4.2-4-6.41a21.93,21.93,0,0,1-2.66-6.38l2.92,3.48h.08c.11-.1.19-.24.29-.35a2.67,2.67,0,0,0-.38-1.91c-.27-.53-.53-1.06-.77-1.61a2.84,2.84,0,0,1-.54.18c-1.48-3.64-3.36-7.17-3.32-11.32,1.19,0,1.16,1.19,1.82,1.63a3.1,3.1,0,0,1,1.27,2.1,13,13,0,0,0,.23,1.39,10,10,0,0,0,1.83,3.93c.36.07.75-.07,1.07.16a1.2,1.2,0,0,1,.73.82c1.8,4.44,4.25,8.55,6.12,12.5-.66-.21-.32-1.85-1.78-1.87-.6.61-.15,1.17.14,1.8a2.24,2.24,0,0,0-1.56-1l-.07.06c-1,.93.09,1.39.56,1.72.89.64.19,1.08,0,1.61h0c2.64,1.9,6,2.74,8.31,6-.08-2.42-1.45-3.52-2.08-5-2.69-6.18-7-11.61-8.47-18.36a16,16,0,0,0-1.53-5,3.72,3.72,0,0,1-.45-.8c-.45-.77-.81-2.21-1.67-1.88a.85.85,0,0,0-.43.32c-.12-.87-.19-1.75-.32-2.59a7.91,7.91,0,0,0,.73,1.37c.2.31.7.8.75-.16a14.08,14.08,0,0,1-.5-4.61c-.32-.91-.52-1.8.46-2.46A6.19,6.19,0,0,1,23.84,50.35Zm-3,16.9v0S20.87,67.26,20.87,67.25Zm-.11-.39a.39.39,0,0,0,0,.15,8.22,8.22,0,0,1-.34-1.13A2.55,2.55,0,0,1,20.76,66.86Z"></path><path class="cls-2" d="M53.08,4.08c3.55,1.22,5.22,4.52,7.46,7.09a54.73,54.73,0,0,0,7,7.35,24,24,0,0,1,4.88,5.27,8.84,8.84,0,0,0,2.71,2.77A3.78,3.78,0,0,1,76.81,31a26.75,26.75,0,0,0-.41,5.77,1.62,1.62,0,0,1-2.33,0c-.49-1.57.24-3,.43-4.55.38-3,.14-3.56-2.65-4.77a7.76,7.76,0,0,0-2.39-.71c1.47,1.17,2.77,2.1,2.87,3.83,0,.38.27,1,.07,1.09-1.51.5-1.19,2.74-2.9,3a2.7,2.7,0,0,1-1.28-.29c-.78-.4-1.74-.15-2.47-.69-.25-1-1-.48-1.55-.42-1.32.13-2.58.91-4,.42-2.5-.8-5.1-.36-6.93-.66,1.59-.09,3.87.39,6.18.31.51.9-.3,1.06-.79,1.22a32.24,32.24,0,0,1-7.87,1.81l-.51-.12c-2.81-.38-5.63-.07-8.45-.18a36.15,36.15,0,0,1-5.52-1.26c-4-3.31-8.69-3.56-13.54-3a7.16,7.16,0,0,1-.43-5.94c-4.38.71-7.93,2.4-10,6.61-1.33-2.44-1-4,1-5.21a30.8,30.8,0,0,1,6.44-3.16c-2.64-3.61,2-11.25,6.82-11.31,0-.13-.07,0-.26,0-1.11.13-2.55.86-3.17-.44s.83-2,1.67-2.7C26.1,8.6,27.71,8,28.49,6.43a1.45,1.45,0,0,1,1-.79,12.18,12.18,0,0,1,6.18-1.46c3.48,0,7-.06,10.45-.09A39.35,39.35,0,0,1,53.08,4.08Z"></path><path class="cls-1" d="M34.48,41l.43-.43c.32-.37.45-.95.89-1a5.09,5.09,0,0,0-3.18.19c-4.36.76-8.29,2.71-12.26,4.53-1.29.59-1.11,2.13-1.89,3.05a1.57,1.57,0,0,1-1.76.74c-.66-.93.16-1.69.34-2.67-1.92,1.22-2.21,3.19-2.78,5-.32,1-.28,2.63-1.49,2.56s-.94-1.71-1.23-2.7c-.11-.38,0-.82-.26-1.27A11.68,11.68,0,0,1,11,50.26c-.25.48-.44,1.07-1.1,1-.48,0-.36-.6-.52-.91,0-.58.73-1.23.09-1.69s-1.12.25-1.61.53a59.26,59.26,0,0,1-5.28,2.95c1.84-2.45,4.52-3.75,6.9-5.45.2-.53.72-.66,1.14-.92a2.9,2.9,0,0,0,1.57-2c.13-.39.27-.77.4-1.15.31-.91.83-1.73,1.19-2.64-.55-.35-.82.26-1.23.28-1.32-1.06-2.51.12-3.77.21-.43,0-1.14.17-1.2-.31C7.46,39,8.81,39.3,9.31,38.68c.46-1.2,1.6-1.61,2.6-2.17,1.77-1,3.68-1.74,5.13-2.74a24.89,24.89,0,0,1-7.61,1c-.77-.55-1.63-.23-2.46-.25-.49.21-1,.36-.91-.47l3.74-1a24.14,24.14,0,0,1,12-1.82,3.8,3.8,0,0,0,1.9.53,25.52,25.52,0,0,1,12.7,2.6c1.72.4,3.55.41,5.09,1.44-.33.53-1,0-1.38.52-.67,3-3.58,3.61-5.61,5.14q-.2-.16-.12-.33C34.39,41.06,34.44,41,34.48,41Z"></path><path class="cls-1" d="M74,36.42a3.92,3.92,0,0,0,2.38.38c2.7.82,5.48,1.39,8,2.91-2.71.41-5.27-1-8-.56-1,.7-2.16-.08-3.21.28a2.68,2.68,0,0,1-1.12-.24c.17.21.47.24.63.44,1.17,1.53-.38,1.3-1.06,1.64-3.09-1.08-6.37-.53-9.54-.88-.28-.23-.21.25-.15-.06,0,0,.06,0,.18,0,4.72,1.42,7.13,4.93,8.5,9.4A8.31,8.31,0,0,1,71,52.88c-.08.7,0,1.61-1.08,1.67a16,16,0,0,0-2.44-5c-.59-.81-2.3-.38-2.2-2a6.87,6.87,0,0,0-5.63-5.11l-.85-.06c-.84-.58-1.37.29-2,.43a7.89,7.89,0,0,1-5.88-6.42c2.71-1.7,6.07-1.34,8.84-2.83a.67.67,0,0,1,.86-.13c1.74-.18,3.41-1,5.18-.78,1.38.2-.17.56-.06.87.86.72,2-.16,2.85.49l1,.35c.68,1.26-.3,1-.75,1.21C70.26,36.22,72.36,35,74,36.42Z"></path><path class="cls-3" d="M21.93,31.79c-4.12-.28-8.1.77-12.13,1.3,0-2.92,1.64-5.32,2.65-7.86,1.43-3.62,2.9-7.31,5.4-10.41.68-.84,1.43-1.61,2.14-2.42,2.57-2.5,5.22-4.87,8.75-6,.64.49.09.81-.21,1.08-.63.56-1.39,1-2,1.6-1,1.07-3.28,1.54-2.92,2.94.33,1.25,2.5.15,4,.73a10.1,10.1,0,0,0-6.57,4.45c-1.94,3.13-2,4.92-.14,7.31-2.94.36-5.23,2.2-7.73,3.5-1.4.73-1.19,2.21-1.08,4.05,2.24-5.16,6.52-6.21,11.75-7.14-2.31,2.32-.9,4.54-1.11,6.65C22.56,32,22.25,31.92,21.93,31.79Z"></path><path class="cls-4" d="M63.5,85.66c1.72-5.55,5.64-10.64,6.61-16.44.17-1,1.53-1.68,1.19-3,.64-.69.24-1.6.49-2.38A30,30,0,0,0,73.48,55c0-.88-.21-1.92.9-2.42.65.26.77.88,1,1.44.43,1.59-.6,3.17-.07,4.76a5,5,0,0,1,.16.64,9.14,9.14,0,0,1,.07,2.22c0,.24-.3.48,0,.73a.71.71,0,0,1,.67-.48c.66.29.7.84.65,1.44-1,1.39-1.27,3.07-1.71,4.67a4.38,4.38,0,0,0-.3,2.5,5.57,5.57,0,0,1-.69,1.82c-.83,1.55-.53,4.72-3.68,8.56-3.73,3.5-8.35,8.7-8.92,12.83C61.16,93.21,63.12,86.13,63.5,85.66Z"></path><path class="cls-2" d="M83.33,58.87a24,24,0,0,1,4.85,6.42,13,13,0,0,1,0,3.68c-.08,4.48-3.41,7.18-5.76,10.4-1,1.4-1.75,3.06-3.21,4.14-.68-.93,0-1.64.44-2.31,2.64-4.23,3.59-8.68,1.88-13.49a3,3,0,0,1,.79-3.41c1.88-1.22,1-2.22.22-3.39C82.51,60.11,82,59.15,83.33,58.87Z"></path><path class="cls-5" d="M82.89,61c1,.73,1.5,1.89,2.39,2.87-2.37.15-3.86,1.79-3.17,3.65,2,5.41.54,10.17-2.38,14.74a6.71,6.71,0,0,0-.5,1.27c-.3.34-.58.7-.9,1a2.71,2.71,0,0,1-.68.37c.27-2.75,1.57-5.16,1.61-7.82a5,5,0,0,0,0-3c-.36-1-.39-2.19-1.51-2.79-.47-2.74,1-5,1.8-7.46A5.77,5.77,0,0,1,81,62.37c.19-.43,1,.9,1-.33A1,1,0,0,1,82.89,61Z"></path><path class="cls-6" d="M82.89,61c-1,.07.21,2.68-1.8,1.56-.49-.74-.14-1.49,0-2.23.37-2.31,1.17-4.59.29-6.53-.12-.72-.51-.28-.25-.44,1.13-.72.51,5.48-.72,7.36-.68-.33-.58-.79-.42-1,.11,2.63-.89,5.28-2,7.92a11.17,11.17,0,0,1-1.53,2.6l-1,.28c-.69-.92-.19-1.81.17-2.62a51.35,51.35,0,0,0,3.54-11.73c.66-1.91.22-3.78-.17-5.67-.33-1.56.32-1.8,1.58-1.07.2-1.87-.87-3.2-1.89-4.53A7,7,0,0,1,77.16,42c-.1-.47-.29-1.18.68-1,5.79,3.88,6.61,9.52,5.62,15.81a20.36,20.36,0,0,0-.13,2.07C82.63,59.46,83,60.27,82.89,61Z"></path><path class="cls-7" d="M69.87,54.55c1-1.71.36-3.43,0-5.15.51-1.42-.42-2.49-.87-3.67-.35-.9-.7-1.83.51-2.35s1.67.26,2.19,1.29c2.77,5.61,2.55,11.31.8,17.1a6.82,6.82,0,0,1-1.45,2.86c-1.3.42-1.18-.58-1.13-1.26.06-1.06.39-2.08.41-3.15s.57-2.23.07-3.37C69.83,56.18,70.1,55.31,69.87,54.55Z"></path><path class="cls-8" d="M11.18,55c-.41,2.21.11,6.37-.54,8.67-.31,1.09-1.92-3.08-2.3-5a7.74,7.74,0,0,1,.58-5.44c2.18.48.7,2.12,1.05,3.22.14-.92-.23-2.08,1.15-2.38A.72.72,0,0,1,11.18,55Z"></path><path class="cls-9" d="M79.7,55.89a39.37,39.37,0,0,1-3.28,11.73c-.38.91-.62,1.89-.92,2.84a2.57,2.57,0,0,1-1.38,1.86,2.43,2.43,0,0,1,.41-1.81,5.28,5.28,0,0,1,.26-2,28.55,28.55,0,0,1,1.92-4.86c.47-3.46,1-6.92,1.2-10.41,0-.74,0-2,1.4-2A6.84,6.84,0,0,1,79.7,55.89Z"></path><path class="cls-10" d="M77.84,41c-.61,1.68.74,2.53,1.49,3.67,1.21,1.85,2.91,3.6,1.71,6.14a7.93,7.93,0,0,0-3.15-3.46,24.53,24.53,0,0,0-4.7-8.27c1.1-.93,2.14,0,3.21.08C76.25,40.26,77.31,40.42,77.84,41Z"></path><path class="cls-11" d="m9.43 34.79c2.56-1.35 5.39-0.78 8.34-1.27-2.47 2.65-5.87 3.25-8.46 5.16-0.45-1.31 0.18-2.59 0.12-3.89z"></path><path class="cls-12" d="M8.79,40.52c1.1-1.26,2.28-1.91,3.76-.54.42,1-.28,1.72-.63,2.53a4.63,4.63,0,0,1-1.69,1.74c-.56.12-1.15.55-1.62-.17a7.87,7.87,0,0,1,.12-2.56Z"></path><path class="cls-13" d="M22.8,67.13c-1.05-.48-1.17-1.78-2.22-2.46-.06,1.47.81,2.59,1.19,3.93-1.59-1.41-2.77-5.68-2.61-9.87.74,1.89,1.29,3.3,1.85,4.69,0,0,.14.09.2.08s.14-.07.2-.11A9.27,9.27,0,0,1,22.8,67.13Z"></path><path class="cls-14" d="M77.38,67.56c1.37-2.62,1.78-5.53,2.45-8.37.56.37.22,1,.38,1.42.85,1.09.3,2.14-.08,3.2a47.14,47.14,0,0,0-2.38,7.42c-.28.06-.37-.1-.39-.33C76.3,69.78,77.71,68.67,77.38,67.56Z"></path><path class="cls-15" d="M70.42,56.85c.73,1.07.28,2.26.33,3.39-.62,2.26-.59,4.78-2.63,6.47-.63.6-.65,1.7-2.11,2.34C67.92,64.81,70.34,61.22,70.42,56.85Z"></path><path class="cls-16" d="M34.48,41l0,.49c-2.2,1.9-4.92,2.87-7.45,4.19-.28-.1-1-.08-.28-.56A52.75,52.75,0,0,1,34.48,41Z"></path><path class="cls-17" d="M11.08,54.09c-.91.71-.74,1.87-1.1,3-.63-1.38.41-3-1.06-3.91.16-.93.31-1.86.47-2.79.41.77.82.55,1.22,0A3.31,3.31,0,0,1,11.08,54.09Z"></path><path class="cls-18" d="M40.07,36.36c.31-.59.88-.45,1.38-.51,2.95.24,5.95-.52,8.86.44Z"></path><path class="cls-19" d="M8.93,44.26l1.32-.42a1.4,1.4,0,0,1,.8,1.7,2.36,2.36,0,0,1-.35.59c-.2.62-.75.5-1.21.58-.24-.5-.47-1-.7-1.51C8.55,44.85,8.51,44.52,8.93,44.26Z"></path><path class="cls-5" d="m77.38 67.56c1 1.12-0.42 2.22 0 3.34l-0.88-0.72c-0.28-1.07 0.6-1.74 0.88-2.62z"></path><path class="cls-20" d="M6.06,34.07c.18.4.57.39.91.47-.88.7-1.87.4-2.91.34C4.55,34,5.3,34,6.06,34.07Z"></path><path class="cls-21" d="M4.51,43.38A4.53,4.53,0,0,1,7,40.75,6.35,6.35,0,0,1,4.51,43.38Z"></path><path class="cls-22" d="m67.11 53.15-0.46-0.06v-2.65c0.8 0.89 0.23 1.89 0.46 2.71z"></path><path class="cls-23" d="M69.82,23.7c-3.94-1.21-8.35-.67-11.47-4a3.44,3.44,0,0,0,1.15-.27c1.1-.62,1.76-1.17.56-2.59-2.66-3.14-3.86-7.19-6.23-10.6C59.81,11.53,64.13,18.23,69.82,23.7Z"></path><path class="cls-23" d="M74,36.42c-1.92-.15-3.87.1-5.72-.33-.06-1.07,1.59-.56,1.16-1.71,2.08-.93-.5-1.13-.24-1.87a2.13,2.13,0,0,1,.47-.3c.75-.29,2.23.38,2.2-.53s0-2.42-1.24-3.23c-.86-.57-2-.94-2.32-2.28,2.46-.18,4.37,1,6.25,2.19a1.93,1.93,0,0,1,.83,2.06C74.83,32.4,75.15,34.58,74,36.42Z"></path><path class="cls-24" d="m21.93 31.79 0.84-0.18c5-1.22 9.61-0.82 13.59 2.79a115.8 115.8 0 0 0-14.43-2.61z"></path><path class="cls-25" d="M60.52,33.45l-.86.13c-2.48-.2-5,.37-7.43-.66C55,32.43,57.77,33.09,60.52,33.45Z"></path><path class="cls-23" d="M68.49,34H64.68c.16-.23.21-.39.3-.41a3.61,3.61,0,0,1,.66-.08C66.59,33.73,67.66,33.17,68.49,34Z"></path><path class="cls-26" d="M11.25,47.73c1-.07,1.17,4,1.42,5.33,1.79-3,.87-7.39,5.36-8.54L16.76,48c.38.45.9.84.61,1.56-1.79,3.47-.68,6.89.19,10.32,0,.68.46,1.32.18,2A1.85,1.85,0,0,0,17,63.59c-1.15-.42-1.8-1.41-2.73-2-1.43-1.36-3.3-6.53-3.3-6.53S10.17,47.81,11.25,47.73Z"></path><path class="cls-27" d="M25.55,84.5l-2.49-.72c2.33-1.07,0-2,.11-3,0-.1.08-.19.11-.29.77-1.3-.3-2.28-.58-3.4s-1.26-2.16-.38-3.4c.47-.39.89-.91,1.24.16,1.73,5.2,4.8,9.78,6.9,15-1.49-.77-1.61-2.74-3-3.48l-.28-.15c-.66-.52-.9-1.36-1.5-2C25.79,83.66,25.91,84.11,25.55,84.5Z"></path><path class="cls-28" d="m12.44 57.89 2 3.58a52.58 52.58 0 0 0 0.66 11.27c-1.37-4.86-4.35-9.42-2.66-14.85z"></path><path class="cls-29" d="M17.23,60.14c-1.31-3.73-2.47-7.46,0-11.21a20.39,20.39,0,0,1,2.14-2.6c.68-.37,1.09-1.27,2.06-1.11.63,1.65-1.64,2.21-1.4,3.72-1.73.37-1.72,2-1.95,3.16a14.66,14.66,0,0,0,.13,6.81,1.85,1.85,0,0,1,.13.66C18.08,60,17.8,60.34,17.23,60.14Z"></path><path class="cls-30" d="M21.39,45.22a5.21,5.21,0,0,1-1.83,1.39c-.46.23-.81.74-1.43.5a5,5,0,0,1,3.34-4.06c3.31-1.18,6.57-2.48,9.86-3.73.46-.17.9-.21,1.22.26C29.6,41,26.44,42,23.66,43.82Z"></path><path class="cls-27" d="M19.54,76c.55-.38.93-1.14.69-1.56-1.43-2.54-.58-5.67-2.19-8.13,1.53-.73,1.2.81,1.38,1.32.71,2.06,1.18,4.2,2.45,6A13.09,13.09,0,0,0,23.21,78a2.09,2.09,0,0,1,.1,2.59l-.14.14-1.82-1.36a3.29,3.29,0,0,0-.56-1.65.41.41,0,0,0-.09-.42l-.2.1C19.93,77.1,19.78,76.51,19.54,76Z"></path><path class="cls-31" d="M18.1,59.22c-1.88-2-.84-9.18.82-10.74.54-.51.68.39,1.07.46l-.46.47a8.83,8.83,0,0,0-.48,5.44,3.65,3.65,0,0,1-.09.74C18.48,56.76,18.61,58.06,18.1,59.22Z"></path><path class="cls-16" d="M23.66,43.82c2.59-2.2,5.71-3.29,8.89-4.24a5.8,5.8,0,0,1,3.34-.37c.15.85-.5,1-1,1.37-.25-1.54-1.17-.68-1.9-.53C29.66,40.72,26.89,42.84,23.66,43.82Z"></path><path class="cls-32" d="M23.31,80.6c.43-2.06-1.69-3.4-1.52-5.42,0-.51-.17-1,.08-1.55.17-.26.31-.23.45,0,.12,2.06,1.19,3.81,1.93,5.66C24.71,80.44,24.38,80.72,23.31,80.6Z"></path><path class="cls-33" d="M26,86.17v-1.3c.7-.55,1.08-.07,1.45.45h0c.26.77.53,1.54,1,2.91Z"></path><path class="cls-34" d="M18.1,59.22a8.94,8.94,0,0,1,.55-3.73c.41-.08.66,0,.45.49l-.87,4.6c-.38-.22-.34-.52-.16-.85Z"></path><path class="cls-29" d="M18.61,55.06c.07-1.92-.43-3.94.92-5.65.14,1.44-.75,2.78-.41,4.24C19.29,54.25,19.63,54.9,18.61,55.06Z"></path><path class="cls-35" d="M18.61,55.06c.5-.35.44-.9.51-1.41.31.07.64-1.1.73-.21A3.42,3.42,0,0,1,19.1,56l-.45-.49C18.63,55.35,18.62,55.21,18.61,55.06Z"></path><path class="cls-36" d="M20.86,77.46c.5.55,1.19,1.05.49,1.91l-.45.34c.27-.84-.44-1.51-.4-2.3h0C20.62,77.24,20.75,77.25,20.86,77.46Z"></path><path class="cls-37" d="M22.6,48.85c0-.34-.13-.57-.06-.65a1.26,1.26,0,0,1,.66-.49c.26,0,.27.25.13.42A8.37,8.37,0,0,1,22.6,48.85Z"></path><path class="cls-38" d="M18.09,42.42c-.55.15-1,1.16-1.68.12s.34-.87.63-1.25c1-1.32,1.66-3,3.16-3.89.63-.38,1.44-2.25,2.44,0,.35.8,1.49-.8,2.66-.37-1.37,1.16-3,1.38-4.47,2.07-.84.41-1.86.59-1.32,1.9C19.27,41.7,18.65,42,18.09,42.42Z"></path><path class="cls-39" d="M18.09,42.42c.48-.47.95-1,1.42-1.43,1-.21,1.65-1.37,3.17-1.27A14.48,14.48,0,0,1,18.09,42.42Z"></path><path class="cls-40" d="M15.07,38.67c-1.31.27-2,.54-2.52,1.31a11.26,11.26,0,0,0-1.85,6.15C12.11,46,12.78,42.8,15.07,38.67Z"></path><path class="cls-41" d="M18.13,47.11l1.43-.5a7.5,7.5,0,0,1-2.37,2.32c.08-.41-1-.3-.43-.93Z"></path><path class="cls-42" d="M72.22,64.32c-.47.6-.94.61-1.4,0,3-6.17,3.72-12.4.43-18.72-.14-.27-.36-.6-.31-.85.2-1,0-1.26-1.06-1s-.62.91-.43,1.56c.36,1.33,1.59,2.59.44,4.09-1.51-5-4.62-8.25-9.88-9.51C63.9,41,68,38.77,71.72,41c2.63.65,4.82,3.77,5,7.17a2.4,2.4,0,0,1-.28.61c-.84,1-.55,2.21-.5,3.37a1.66,1.66,0,0,1-.28.86c-.67.73-.71-.49-1.18-.39-1,1.9-.26,4-.77,6S72.83,62.46,72.22,64.32Z"></path><path class="cls-40" d="M76.27,48.44c-.12-3.33-2.12-5.5-4.55-7.41l1.14-.78-2.28-1.32a3,3,0,0,1,2.61.14c3.06,1.8,4.15,4.86,5.08,8,.67,1.57,0,3.15,0,4.72A30.25,30.25,0,0,0,78,55.25c-2-1.25-.93-3.17-1.63-4.5A3.46,3.46,0,0,1,76.27,48.44Z"></path><path class="cls-43" d="m68.27 38.13h-6.22c1.95-1.78 3.77-1.83 6.22 0z"></path><path class="cls-44" d="M76.9,50.36c.77,1.31.2,2.83.63,4.33.51-1,.2-2,.3-2.93.54-.68-.1-1.62.6-2.45a1.67,1.67,0,0,1,.73,2c-1.62,2.74-.33,5.91-1.31,8.76-.41,1.23-.61,2.53-.9,3.8-.31,0-.37-.25-.52-.42,0-.5.06-1-.35-1.44-.7-1.47.92-2.63.49-4-.57.31-.51,1.49-1.56,1.23v0c-.5-1.2,0-2.28.4-3.38a15,15,0,0,0,.3-3.73A8.77,8.77,0,0,1,75.78,50C76.37,49.44,76.59,50,76.9,50.36Z"></path><path class="cls-45" d="m60.18 91.49c1.25-3.74 10.09-17.37 12.21-23.1 0.32 7.83-10.22 19.61-12.21 23.1z"></path><path class="cls-46" d="M75,59.2,76.65,57c1.29,1.92-.11,3.4-.57,5L75,63.57Z"></path><path class="cls-47" d="M76.43,63.45l.52.42q-1,2.35-1.9,4.71c-.32-.09-.37-.39-.5-.63C75.05,66.4,74.66,64.48,76.43,63.45Z"></path><path class="cls-48" d="M75.88,55.9C75.59,57,75,58,75,59.22c-1.3-1.72.18-3.45,0-5.17-.1-.51.15-.59.57-.45C76.27,54.29,75.45,55.17,75.88,55.9Z"></path><path class="cls-49" d="M74.55,68l.49.63c-.13.66.18,1.43-.51,1.93C73.6,69.65,74.3,68.8,74.55,68Z"></path><path class="cls-50" d="M75.42,53.55c-.14.17-.28.33-.41.5-.58-.32-.42-.9-.5-1.4.13-.39.22-1,.57-.09a6,6,0,0,0,.28.57c.18.07.25.16.21.26S75.47,53.55,75.42,53.55Z"></path><path class="cls-51" d="M80.13,63.81c0-1.07.05-2.13.08-3.2.8-2.57,1.47-5.16.94-7.91a14.52,14.52,0,0,1-.06,9.84C80.78,63,80.86,63.7,80.13,63.81Z"></path><path class="cls-14" d="M79.16,51.31l-.63-1.61c-.49.71,0,1.61-.7,2.06a12.5,12.5,0,0,1,.44-4.67c1.71.65,2.36,2.09,2.77,3.71L79.33,49c.3,2.53,1.62,4.69.37,6.94A15.74,15.74,0,0,0,79.16,51.31Z"></path><path class="cls-52" d="M27.46,85.32,26,84.87l-.46-.37c-.21-.83-.75-1.65-.07-2.74A13.51,13.51,0,0,1,27.46,85.32Z"></path><path class="cls-53" d="M12.28,35.69c.53-.86,1.11-.7,1.9-.68A2.55,2.55,0,0,1,12.28,35.69Z"></path><path class="cls-31" d="M20.86,77.46a2.58,2.58,0,0,0-.39,0c.06-.35.11-.7.16-1.06.18.07.43.08.52.21C21.44,77,21.19,77.24,20.86,77.46Z"></path><path class="cls-54" d="M75.42,53.55a1,1,0,0,0-.06-.42c0-.3.09-.6.13-.9s.29-.22.43,0c.26,1.23.63,2.46,0,3.67C75.16,55.23,75.63,54.32,75.42,53.55Z"></path><path class="cls-55" d="m75.92 52.23h-0.43c-0.13-1.3-0.48-2.63 0.51-3.78a1.4 1.4 0 0 1 0 1.44c0 0.78 0 1.56-0.08 2.34z"></path><path class="cls-56" d="m76 49.89v-1.44a0.62 0.62 0 0 0 0.27 0l0.63 1.92c-0.3-0.17-0.6-0.37-0.9-0.48z"></path><path class="cls-1" d="M17.21,34.14C14.41,35.62,8,38,4.46,42.45c0,0,7.7-5.05,11.19-5.75Z"></path><path class="cls-26" d="M59.87,42.61C61,43.46,69.66,51,63.68,69.5c0,0,.47.15.78-.93s7.3-22.77-3.73-26.19Z"></path><path class="cls-26" d="M35,40.28c-1.16-.7-7.92,1.63-10.8,3.26s-8.16,6.06-8.78,7c0,0,5-6.92,11.27-9.56S35,40.28,35,40.28Z"></path><path class="cls-26" d="M34.48,41c-2,.59-8.57,3.31-12.69,7s-4.18,9.76-3.72,11.68c0,0-1.25-12.15,16.08-18.21Z"></path><path class="cls-26" d="m25.52 38.8c-2 0.78-5.28 1.79-7.3 3.34a8.6 8.6 0 0 1 3-2.87 9.58 9.58 0 0 1 4.3-0.47z"></path><path class="cls-1" d="m18.68 40.43c-2.68 1.17-11.42 2.72-16.16 8.09 0 0 13.37-7.08 15.78-7.62s0.38-0.47 0.38-0.47z"></path><path class="cls-27" d="m73.35 66.66c0.82 4.31 3.85 11.77-2.33 20 0 0 5.48-10.26 2-18.53-0.82-1.85 0.33-1.47 0.33-1.47z"></path></g></svg>