<svg width="192" height="192" enable-background="new 0 0 200 200" version="1.1" viewBox="0 0 192 192" xml:space="preserve" xmlns="http://www.w3.org/2000/svg"><g transform="rotate(0 3.14 2.18) translate(6.631864067455979 6.631864067455979) scale(0.8947998591493769)"><path d="m127.8 133.4c-0.133 9.346-12.53 16.9-27.8 16.9s-27.66-7.55-27.79-16.9l-6e-3 50.96h55.59v-51z" fill="#DA1C5C"></path><g fill="#992634"><polygon points="35 160.6 35 184.4 72.2 184.4 72.2 149.5"></polygon><polygon points="127.8 149.5 127.8 184.4 165 184.4 165 160.6"></polygon></g><linearGradient id="e" x1="881.7" x2="966.3" y1="1226" y2="1226" gradientTransform="translate(-824 -1182)" gradientUnits="userSpaceOnUse"><stop stop-color="#71CAEE" offset="0"></stop><stop stop-color="#8881B8" offset=".2"></stop><stop stop-color="#EC98BA" offset=".4"></stop><stop stop-color="#EE9579" offset=".6"></stop><stop stop-color="#FCF099" offset=".8"></stop><stop stop-color="#83C59B" offset="1"></stop></linearGradient><path d="m142.3 46.48c-1.422-17.12-21.86-30.84-42.3-30.88-20.43-0.05-40.88 13.59-42.32 30.88v25.34h84.63v-25.34z" fill="url(#e)"></path><linearGradient id="f" x1="950.3" x2="897.6" y1="1262" y2="1210" gradientTransform="translate(-824 -1182)" gradientUnits="userSpaceOnUse"><stop stop-color="#71CAEE" offset="0"></stop><stop stop-color="#8881B8" offset=".2"></stop><stop stop-color="#EC98BA" offset=".6074"></stop><stop stop-color="#83C59B" offset="1"></stop></linearGradient><path d="m134.7 46.48c-1.166-17.12-17.94-30.84-34.73-30.88-16.74-0.05-33.53 13.59-34.71 30.88v25.34h69.47v-25.34z" fill="url(#f)"></path><linearGradient id="g" x1="959" x2="913.5" y1="1254" y2="1208" gradientTransform="translate(-824 -1182)" gradientUnits="userSpaceOnUse"><stop stop-color="#71CAEE" offset="0"></stop><stop stop-color="#EC98BA" offset=".4"></stop><stop stop-color="#FCF099" offset=".8"></stop><stop stop-color="#83C59B" offset="1"></stop></linearGradient><path d="m100 15.6h-0.01v56.23h34.73v-25.35c-1.1-17.12-17.9-30.84-34.7-30.88z" fill="url(#g)"></path><linearGradient id="h" x1="924" x2="924" y1="1268" y2="1240" gradientTransform="translate(-824 -1182)" gradientUnits="userSpaceOnUse"><stop stop-color="#8881B8" offset="0"></stop><stop stop-color="#EC98BA" offset=".5092"></stop><stop stop-color="#FCF099" offset="1"></stop></linearGradient><path d="m100 57.88c-24.15 0-34.73 8.125-34.73 8.125v10.62c0 3.021 1.166 5.848 3.109 7.549 1.946 1.702 4.419 2.061 6.611 0.958 6.965-3.506 16.57-7.378 25.01-7.378 8.444 0 18.05 3.872 25.02 7.378 2.191 1.103 4.666 0.744 6.609-0.958s3.109-4.528 3.109-7.549v-10.62s-10.6-8.12-34.7-8.12z" fill="url(#h)"></path><path d="m127.8 133.4h-0.011c-0.06 4.091-2.459 7.838-6.431 10.76v40.2h6.438v-34.94l37.2 11.1v-16.02l-37.2-11.2z"></path><path d="m72.22 133.4h-0.011l-37.21 11.2v16.02l37.2-11.17v35h6.44v-40.2c-3.96-2.9-6.37-6.7-6.42-10.8z"></path></g></svg>