<svg width="192" height="192" version="1.1" xmlns="http://www.w3.org/2000/svg" viewBox="0 0 192 192"><g transform="rotate(0 3.14 2.18) translate(20.079275408665197 22.16188880144496) scale(0.7573139610108209)"><g transform="translate(-137.8 -503.8)"><g transform="translate(-340 -622.5)"><path d="m620.8 1228h-11c-2.2-4.2-7.6-5.2-13.9-5.2-4.7 0-8.9 0.5-11.6 2.5-24.2-11.2-35.7-27-35.9-27.2-0.5-0.7-1.4-0.8-2-0.3-0.7 0.5-0.8 1.4-0.3 2 0.5 0.8 11.9 16.4 36.1 27.8-0.8 1.3-1.3 3-1.3 5.2 0 8.3 6.7 15 15 15s15-6.7 15-15c0-0.7-0.1-1.3-0.1-1.9h10.1c0.8 0 1.5-0.7 1.5-1.5-0.1-0.8-0.8-1.4-1.6-1.4z" fill="#231f20"></path><path d="m595.8 1240c-3.8 0-7.2-0.9-9.6-2.3 1.9 3.3 5.5 5.5 9.6 5.5s7.6-2.2 9.6-5.5c-2.4 1.4-5.8 2.3-9.6 2.3z" fill="#414042"></path><path d="m609.9 1160c-5.9-11.1-17.3-18-29.8-18s-24 6.9-29.8 18c-13.3 25.3-37.6 21.5-59 21.5 0 18.6 24.9 33.7 43.5 33.7 0 0 23.5-9.8 45.4-9.8s45.4 9.8 45.4 9.8c18.6 0 43.5-15.1 43.5-33.7-20.7 0.1-45.8 4.1-59.2-21.5z" fill="#231f20"></path><path d="m550.2 1160c5.9-11.1 17.3-18 29.8-18s24 6.9 29.8 18c13.3 25.3 37.6 21.5 59 21.5v-5.9c-20.7 0-42.2 3.7-53.9-18.4-6.6-12.6-19.8-21.1-35-21.1s-28.4 8.6-35 21.1c-11.6 22-32.9 18.4-53.9 18.4v5.9c20.7 0.1 45.7 4.1 59.2-21.5z" fill="#cca650"></path><g fill="#d1d3d4"><path d="m588.6 1180-0.9 3.2c-0.1 0.4-0.5 0.6-0.8 0.6h-2.4v1.6c0 0.5-0.4 0.9-0.9 0.9s-0.9-0.4-0.9-0.9v-1.6h-1.8v1.6c0 0.5-0.4 0.9-0.9 0.9s-0.9-0.4-0.9-0.9v-1.6h-1.8v1.6c0 0.5-0.4 0.9-0.9 0.9s-0.9-0.4-0.9-0.9v-1.6h-2.4c-0.4 0-0.7-0.3-0.8-0.6l-0.9-3.2h-1.9l1.7 5.8c0.7 2.4 2.8 4.1 5.2 4.4 2.2 0.3 4.8 0.3 7 0 2.5-0.3 4.5-2.1 5.2-4.4l1.8-5.8h-1.8z"></path><path d="m580 1153c-8.7 0-15.8 6.4-15.8 14.4 0 4.1 1.8 7.7 4.8 10.3h3.1c0.4 0 0.7 0.3 0.8 0.6l0.9 3.2h1.8v-1.6c0-0.5 0.4-0.9 0.9-0.9s0.9 0.4 0.9 0.9v1.6h1.8v-1.6c0-0.5 0.4-0.9 0.9-0.9s0.9 0.4 0.9 0.9v1.6h1.8v-1.6c0-0.5 0.4-0.9 0.9-0.9s0.9 0.4 0.9 0.9v1.6h1.8l0.9-3.2c0.1-0.4 0.5-0.6 0.8-0.6h3.1c3-2.6 4.8-6.3 4.8-10.3-0.2-8-7.2-14.4-16-14.4zm-8.7 19.8c-2.4 0-3.2-1.4-3.2-3.8s1.9-4.3 4.3-4.3c4.4 0 4.8 2.5 4.3 4.3-0.5 2.1-3 3.8-5.4 3.8zm11.9 3.9c-0.8 0.9-1.9-1.7-3.1-1.6-1.3 0.1-2.3 2.5-3.1 1.6-0.3-0.3 1.4-5.4 3.1-5.4 1.8 0 3.3 5.1 3.1 5.4zm5.5-3.9c-2.4 0-4.9-1.7-5.4-3.8-0.5-1.8-0.1-4.3 4.3-4.3 2.4 0 4.3 1.9 4.3 4.3s-0.8 3.8-3.2 3.8z"></path></g><path d="m522.9 1288c-2.1 4.1-7.1 5.7-11.2 3.7l-14.8-7.5c-8.2-4.2-11.5-14.2-7.3-22.4l29.6 15c4.1 2.1 5.8 7.1 3.7 11.2z" fill="#c41a1e"></path><path d="m535.8 1308h-10c-10.3 0-18.7-8.4-18.7-18.7v-37.2h28.7v55.9z" fill="#ed1c24"></path><circle cx="520.8" cy="1252" r="15" fill="#ed1c24"></circle><path d="m529.9 1252c0 5.1-4.1 9.2-9.2 9.2s-9.2-4.1-9.2-9.2 4.1-9.2 9.2-9.2 9.2 4.2 9.2 9.2z" fill="#fff"></path><path d="m516 1238c3.3-3.3 9.6-3.6 17.7-1.2l-3.4 3.9 4.6 1.1-5 3.5-13.9-7.3z" fill="#ed1c24"></path><rect x="509.5" y="1253" width="11.3" height="8" fill="#fff"></rect><circle cx="507" cy="1257" r="6.3" fill="#6d6e71"></circle><path d="m507.2 1248h-5.2c-3.4 0-6.1 2.7-6.1 6.1v3.4h17.5v-3.4c0-3.3-2.8-6.1-6.2-6.1z" fill="#414042"></path><circle cx="520.8" cy="1252" r="3.3" fill="#414042"></circle><circle cx="521.6" cy="1251" r=".8" fill="#fff"></circle><path d="m535.8 1268c-1.5-1.1-3.3-1.7-5.3-1.7-5 0-9.1 4.1-9.1 9.1v18.1c0 6 2.9 11.4 7.4 14.7h6.9v-40z" fill="#c41a1e"></path><path d="m533.2 1266c-5 0-9.1 4.1-9.1 9.1v18.1c0 10 8.1 18.2 18.2 18.2v-36.3c-0.1-5-4.1-9.1-9.1-9.1z" fill="#ed1c24"></path><rect x="524.1" y="1280" width="18.2" height="13.3" fill="#fff200"></rect><path d="m542.2 1312v-18.2h-18.2c0.1 10.1 8.2 18.2 18.2 18.2z" fill="#1c75bc"></path></g></g></g></svg>