<svg viewBox="0 0 192 192" xmlns="http://www.w3.org/2000/svg" width="192" height="192"><g transform="rotate(0 3.14 2.18) translate(5.842632382847725 49.059493205587806) scale(0.902702053738696)"><defs><style>.cls-1{fill:#77d0f6;}.cls-2{fill:#61aece;}.cls-3{fill:#e6e7e7;}.cls-4{fill:#db6a91;}.cls-5{fill:#a34c6b;}.cls-6{fill:#b890bc;}.cls-7{fill:#f2f2f2;}.cls-8{fill:#d4a34c;}.cls-9{fill:#f5ca62;}.cls-10{fill:#231f20;}.cls-11{fill:#d7bfdd;}</style></defs><path class="cls-1" d="M123.2,6.59c-.87-4.68-6.89-5.18-8.71,1C111.77,18.13,101.87,27,89.43,25.91c13.68,11.81,28.07,8,33.56-1.47C126.18,19,123.9,7.8,123.2,6.59Z"></path><path class="cls-2" d="M126,6.69s-4-1-4.23.52,1.19,2.56,2.12,2A10.86,10.86,0,0,0,126,6.69Z"></path><circle class="cls-3" cx="118.2" cy="6.66" r=".95"></circle><path class="cls-2" d="m99.66 19.13a10.4 10.4 0 0 0 16 1c4.79-5.07 0.36-9.4-2.49-8.6-3.46 0.98-4.32 7.6-13.51 7.6z"></path><path class="cls-4" d="M78.51,28.55c-5.59,3.57-10.93,6.32-16.14,6.14A20.77,20.77,0,0,1,59,19c4.67-2.31,10.67-2,17.23-1A20.33,20.33,0,0,1,78.51,28.55Z"></path><path class="cls-4" d="M79.87,17.13C85.46,13.56,90.8,10.81,96,11a20.76,20.76,0,0,1,3.38,15.72c-4.66,2.31-10.66,2-17.23,1A20.33,20.33,0,0,1,79.87,17.13Z"></path><path class="cls-5" d="M70.54,27.51C69,27,72,25.57,71.76,24.44s-3.58-1.24-2.37-2.3,9.13.84,9.13.84S72.08,28,70.54,27.51Z"></path><path class="cls-5" d="m87.84 18.17c1.54 0.47-1.46 1.94-1.22 3.07s3.58 1.24 2.37 2.3-9.13-0.84-9.13-0.84 6.44-5 7.98-4.53z"></path><path class="cls-5" d="M80.66,16.62c1.4.58,2.56,3.1,3.2,5.69.48,2.63.46,5.4-.58,6.51a25.72,25.72,0,0,1-2-5.95A25.82,25.82,0,0,1,80.66,16.62Z"></path><path class="cls-5" d="M75.29,17.78c-1,1.11-1.06,3.88-.58,6.51.65,2.6,1.8,5.11,3.2,5.69a26.7,26.7,0,0,0-2.63-12.2Z"></path><path class="cls-4" d="M80.66,16.62a7.19,7.19,0,0,0-5.36,1.16c.2,1.81.53,3.78.94,5.69s.92,3.84,1.48,5.57a7.2,7.2,0,0,0,5.37-1.14c-.2-1.81-.54-3.79-.95-5.7S81.22,18.36,80.66,16.62Z"></path><path class="cls-6" d="M148.55,78.43H51V62A36,36,0,0,1,87,26h25.58a36,36,0,0,1,36,36Z"></path><path class="cls-5" d="m148.6 62a36.3 36.3 0 0 0-0.34-4.86 409.5 409.5 0 0 0-48.45-2.71 409.4 409.4 0 0 0-48.46 2.7 36.28 36.28 0 0 0-0.3 4.87v12.43h97.58z"></path><path class="cls-3" d="m98 50.05a3.5 3.5 0 0 1 3.47-3.53 3.5 3.5 0 0 1 3.53 3.48 3.5 3.5 0 0 1-3.47 3.53 3.5 3.5 0 0 1-3.53-3.48zm-5.27 2.27a3.5 3.5 0 0 1-2.53-4.26 3.5 3.5 0 0 1 4.26-2.52 3.49 3.49 0 0 1 2.54 4.25 3.5 3.5 0 0 1-3.39 2.64 3.22 3.22 0 0 1-0.89-0.11zm13.82-2.2a3.5 3.5 0 0 1-0.35-4.94 3.51 3.51 0 0 1 4.94-0.34 3.5 3.5 0 0 1 0.34 4.94 3.5 3.5 0 0 1-2.64 1.2 3.46 3.46 0 0 1-2.3-0.86zm-21.92-0.6a3.5 3.5 0 0 1-1.8-4.61 3.5 3.5 0 0 1 4.6-1.81 3.5 3.5 0 0 1 1.81 4.61 3.5 3.5 0 0 1-3.24 2.1 3.48 3.48 0 0 1-1.38-0.29zm-7.63-4.08a3.5 3.5 0 0 1-1-4.85 3.51 3.51 0 0 1 4.85-1 3.51 3.51 0 0 1 1 4.85 3.49 3.49 0 0 1-2.85 1.56 3.51 3.51 0 0 1-2-0.56zm-6.82-6a3.5 3.5 0 0 1 0.55-4.92 3.51 3.51 0 0 1 4.92 0.55 3.51 3.51 0 0 1-0.5 4.93 3.48 3.48 0 0 1-2.19 0.77 3.48 3.48 0 0 1-2.73-1.3zm-0.42-6.33a3.51 3.51 0 0 1-1.88-4.58 3.49 3.49 0 0 1 4.58-1.88 3.5 3.5 0 0 1 1.88 4.57 3.5 3.5 0 0 1-3.23 2.15 3.38 3.38 0 0 1-1.3-0.23z"></path><path class="cls-7" d="m126.7 61.4a3.51 3.51 0 0 1-3.45-3.56 3.51 3.51 0 0 1 3.56-3.44 3.48 3.48 0 0 1 3.44 3.6 3.5 3.5 0 0 1-3.5 3.44zm4.57-3.49a3.51 3.51 0 0 1 3-4 3.5 3.5 0 0 1 4 3 3.51 3.51 0 0 1-3 4 4.25 4.25 0 0 1-0.51 0 3.49 3.49 0 0 1-3.49-3zm-13.13 2.64a3.49 3.49 0 0 1-2.78-4.09 3.49 3.49 0 0 1 4.09-2.78 3.5 3.5 0 0 1 2.79 4.09 3.51 3.51 0 0 1-3.44 2.84 3.85 3.85 0 0 1-0.66-0.06zm21.09-3.81a3.49 3.49 0 0 1 1.85-4.59 3.49 3.49 0 0 1 4.59 1.85 3.5 3.5 0 0 1-1.84 4.59 3.4 3.4 0 0 1-1.38 0.29 3.52 3.52 0 0 1-3.22-2.14zm-29.68 0.93a3.49 3.49 0 0 1-1.39-4.75 3.5 3.5 0 0 1 4.75-1.39 3.5 3.5 0 0 1 1.39 4.75 3.48 3.48 0 0 1-3.07 1.82 3.49 3.49 0 0 1-1.68-0.43zm37.59-4.14a3.5 3.5 0 0 1-2.2-4.44 3.51 3.51 0 0 1 4.43-2.2 3.5 3.5 0 0 1 2.2 4.44 3.49 3.49 0 0 1-3.31 2.38 3.64 3.64 0 0 1-1.12-0.18zm-43.91-5a3.5 3.5 0 0 1 3.5-3.5 3.5 3.5 0 0 1 3.5 3.5 3.5 3.5 0 0 1-3.5 3.5 3.5 3.5 0 0 1-3.5-3.54z"></path><path class="cls-8" d="m58.28 58.35c2.42 4.2-9.2 18.85-15.06 8.7-5.84-10.12 12.64-12.89 15.06-8.7z"></path><path class="cls-8" d="m58.28 58.37c2.43-4.2 20.92-1.46 15.06 8.7-5.84 10.11-17.48-4.5-15.06-8.7z"></path><path class="cls-9" d="m58.28 58.36c4.85 0 11.73 17.39 0 17.39-11.68 0-4.85-17.39 0-17.39z"></path><path class="cls-8" d="m58.28 58.36c4.85 0 11.72-17.36 0-17.36-11.68 0-4.85 17.36 0 17.36z"></path><path class="cls-9" d="m58.28 58.35c2.42 4.2 20.92 1.46 15.06-8.7-5.83-10.11-17.48 4.51-15.06 8.7z"></path><path class="cls-9" d="m58.28 58.37c2.43-4.2-9.2-18.85-15.06-8.69-5.84 10.11 12.64 12.89 15.06 8.69z"></path><circle class="cls-6" cx="58.28" cy="58.45" r="4.5"></circle><path class="cls-8" d="m98.64 28.11c1.57 2.72-6 12.21-9.76 5.63-3.79-6.55 8.19-8.35 9.76-5.63z"></path><path class="cls-8" d="m98.64 28.12c1.57-2.72 13.56-0.95 9.76 5.63-3.79 6.56-11.33-2.91-9.76-5.63z"></path><path class="cls-9" d="m98.63 28.11c3.14 0 7.6 11.27 0 11.27-7.57 0-3.13-11.27 0-11.27z"></path><path class="cls-8" d="m98.63 28.11c3.14 0 7.6-11.27 0-11.27-7.57 0-3.13 11.27 0 11.27z"></path><path class="cls-9" d="m98.64 28.11c1.57 2.72 13.56 0.95 9.76-5.64-3.79-6.55-11.33 2.92-9.76 5.64z"></path><path class="cls-9" d="m98.64 28.12c1.57-2.72-6-12.21-9.76-5.63-3.79 6.51 8.19 8.35 9.76 5.63z"></path><circle class="cls-6" cx="98.63" cy="28.17" r="2.92"></circle><circle class="cls-9" cx="127.6" cy="32.51" r="10.91"></circle><circle class="cls-8" cx="127.6" cy="32.51" r="8.28"></circle><circle class="cls-10" cx="130.1" cy="30.01" r="1.56"></circle><circle class="cls-10" cx="125.1" cy="30.01" r="1.56"></circle><circle class="cls-10" cx="130.1" cy="35.01" r="1.56"></circle><circle class="cls-10" cx="125.1" cy="35.01" r="1.56"></circle><path class="cls-4" d="m124.5 67.59c-10.82 3.24-20.85 5.24-29.28 2.51a35.33 35.33 0 0 1 1.8-27.3c8.71-1.6 18.39 1.7 28.69 6.33a34.6 34.6 0 0 1-1.21 18.46z"></path><path class="cls-4" d="m132.1 49.55c10.82-3.24 20.85-5.24 29.28-2.51a35.35 35.35 0 0 1-1.8 27.3c-8.71 1.6-18.39-1.7-28.69-6.33a34.61 34.61 0 0 1 1.21-18.46z"></path><path class="cls-5" d="m112 62.18c-2.3-1.48 3.3-2.49 3.43-4.46s-5.29-3.7-2.81-4.87 14.55 5.64 14.55 5.64-12.91 5.17-15.17 3.69z"></path><path class="cls-5" d="m144.6 55c2.3 1.48-3.3 2.49-3.43 4.46s5.29 3.7 2.81 4.87-14.55-5.64-14.55-5.64 12.87-5.21 15.17-3.69z"></path><path class="cls-5" d="m133.6 49.08c2 1.61 2.74 6.26 2.58 10.81-0.44 4.53-1.77 9.05-4 10.38a45.4 45.4 0 0 1 1.4-21.19z"></path><path class="cls-5" d="M124.29,48.47c-2.21,1.33-3.54,5.85-4,10.38-.16,4.55.56,9.21,2.58,10.82a45.41,45.41,0,0,0,1.4-21.2Z"></path><path class="cls-4" d="M133.61,49.08a12.25,12.25,0,0,0-9.32-.6c-.51,3.06-.89,6.44-1.11,9.75s-.29,6.71-.18,9.81a12.26,12.26,0,0,0,9.32.63c.51-3.06.89-6.46,1.11-9.77S133.72,52.18,133.61,49.08Z"></path><path class="cls-11" d="m99.75 65.43c-51.91 0-94 8.47-94 18.92 0 7.53 21.86 14 53.5 17.08 0-27.3 81-27.34 81 0 31.64-3 53.5-9.55 53.5-17.08 0-10.45-42.08-18.92-94-18.92z"></path><path class="cls-6" d="m99.75 70.43c47.69 0 87.08 7.15 93.18 16.42a4.55 4.55 0 0 0 0.82-2.49c0-10.45-42.08-18.92-94-18.92s-94 8.47-94 18.92a4.55 4.55 0 0 0 0.82 2.49c6.1-9.27 45.49-16.42 93.18-16.42z"></path></g></svg>