<svg enable-background="new 0 0 200 200" version="1.1" viewBox="0 0 192 192" xml:space="preserve" xmlns="http://www.w3.org/2000/svg" width="192" height="192"><g transform="rotate(0 3.14 2.18) translate(23.161519009852995 32.33513122523676) scale(0.7338889772307002)"><path d="m147.3 5.6c-1.8-2.3-4.5-3.7-7.5-3.7h-31.1c-2.9 0-5.7 1.4-7.5 3.7l-12.7 16.8c-2.5 3.2-3.8 7.2-3.8 11.3v31.1h79v-31.1c0-4.1-1.3-8-3.8-11.3l-12.6-16.8z" fill="#231F20"></path><g fill="#4E4E50"><path d="m124.4 10.6c8.5 0 15.3-3.9 15.3-8.7h-30.7c0.1 4.8 7 8.7 15.4 8.7z"></path><rect x="84.7" y="49.8" width="79" height="15"></rect><path d="m50.7 64.8c0 13.2 32.9 23.9 73.6 23.9s73.6-10.7 73.6-23.8h-147.2z"></path></g><path d="m58.8 64.8c0.2 1 3.7 5.4 17.3 9.5 12.9 4 30 6.1 48.1 6.1s35.1-2.2 48.1-6.1c13.7-4.2 17.1-8.6 17.3-9.5v-0.1h-130.8z" fill="#231F20"></path><rect x="84.7" y="61.1" width="79" height="3.8" fill="#323031"></rect><rect x="42.4" y="66.9" width="3.4" height="8.3" fill="#595A5C"></rect><polygon points="44.1 141.2 5.1 98.2 7.4 96.1 44.1 136.5 80.8 96.1 83.1 98.2" fill="#231F20"></polygon><rect x="39" y="72" width="10.2" height="15.1" fill="#231F20"></rect><rect x="38.3" y="113.1" width="11.5" height="43.9" fill="#595A5C"></rect><rect x="33.9" y="98.1" width="20.5" height="18.5" fill="#595A5C"></rect><g fill="#231F20"><path d="m54.3 116.6c0 2.6-2.1 4.7-4.7 4.7h-11c-2.6 0-4.7-2.1-4.7-4.7h20.4z"></path><rect x="33.9" y="83.4" width="20.5" height="14.7"></rect><path d="m38 117.6c-0.6 0-1.1-0.5-1.1-1.1v-18.4c0-0.6 0.5-1.1 1.1-1.1s1.1 0.5 1.1 1.1v18.5c-0.1 0.6-0.5 1-1.1 1z"></path><path d="m42.1 117.6c-0.6 0-1.1-0.5-1.1-1.1v-18.4c0-0.6 0.5-1.1 1.1-1.1s1.1 0.5 1.1 1.1v18.5c-0.1 0.6-0.6 1-1.1 1z"></path><path d="m46.1 117.6c-0.6 0-1.1-0.5-1.1-1.1v-18.4c0-0.6 0.5-1.1 1.1-1.1s1.1 0.5 1.1 1.1v18.5c0 0.6-0.5 1-1.1 1z"></path><path d="m50.2 117.6c-0.6 0-1.1-0.5-1.1-1.1v-18.4c0-0.6 0.5-1.1 1.1-1.1s1.1 0.5 1.1 1.1v18.5c0 0.6-0.5 1-1.1 1z"></path></g><path d="m43.4 151.5 10.8 6c1.7 0.6 3.5-0.2 4.2-1.9l0.7-1.9-15.7-10.1-8 5.1c-0.9 0.6-1.5 1.6-1.5 2.7v20.4h16.1l4.9-14.1" fill="#6E6F72"></path><path d="m41.7 144.8c1.1-0.7 2.4-0.7 3.5 0l8.7 5.6c0.8 0.5 1.8 0.7 2.8 0.4 0.9-0.3 1.7-1 2-1.9l0.4-1.1-15.7-10.1-7.3 4.6c-1.3 0.8-1.8 2.4-1.3 3.8l0.9 2.5 6-3.8z" fill="#595A5C"></path><path d="m41.7 138.7c1.1-0.7 2.4-0.7 3.5 0l8.7 5.6c0.8 0.5 1.8 0.7 2.8 0.4 0.9-0.3 1.7-1 2-1.9l0.4-1.1-13.9-8.9c-1.1-0.7-2.4-0.7-3.5 0l-5.6 3.5c-1.3 0.8-1.8 2.4-1.3 3.8l0.9 2.5 6-3.9z" fill="#424143"></path><circle cx="44.1" cy="157.1" r="7.4" fill="#231F20"></circle><path d="m83.3 101.5c-21.7-21.7-56.8-21.7-78.4 0l-4.1-4.1c23.9-23.9 62.7-23.9 86.6 0l-4.1 4.1z" fill="#595A5C"></path></g></svg>