<svg width="192" height="192" enable-background="new 0 0 200 200" version="1.1" viewBox="0 0 192 192" xml:space="preserve" xmlns="http://www.w3.org/2000/svg"><g transform="rotate(0 3.14 2.18) translate(15.629886615531717 15.629886615531717) scale(0.8047070176167037)"><path d="m100 7.678c-10.52 0-30.33 0.558-35.24 9.871-2.166 4.111-15.48 30.27-30.23 35.14v23.91l27.39-7.52s19.72-8.188 38.07-8.188 38.07 8.188 38.07 8.188l27.39 7.52v-23.91c-14.75-4.871-28.06-31.03-30.23-35.14-5-9.316-24.8-9.872-35.3-9.872z"></path><rect x="79.91" y="167.5" width="40.18" height="24.77" fill="#F1F2F2"></rect><path d="m100 17.68c-10.52 0-25.33 0.558-30.24 9.871-8.739 16.59-19.93 22.76-32.99 24.65-6.463 0.938-11.27 6.477-11.27 13.01v10.87c0 1.656 1.343 3 3 3h33.43s12.32-8.188 38.07-8.188 38.07 8.188 38.07 8.188h33.43c1.657 0 3-1.344 3-3v-10.87c0-6.532-4.81-12.07-11.27-13.01-13.06-1.896-24.25-8.062-32.99-24.65-4.9-9.32-19.7-9.87-30.2-9.87z" fill="#414042"></path><circle cx="124.7" cy="64.51" r="3.911" fill="#FBC834"></circle><path d="m124.7 66.51c-1.104 0-2-0.896-2-2v-31.64h4v31.64c0 1.1-0.9 2-2 2zm-1-32.64v30.64c0 0.551 0.448 1 1 1 0.553 0 1-0.449 1-1v-30.64h-2z" fill="#CE8A00"></path><circle cx="124.7" cy="64.51" r="1.25" fill="#FBC834"></circle><rect x="71.91" y="157.1" width="8" height="35.23" fill="#CE8A00"></rect><rect x="120.1" y="157.1" width="8" height="35.23" fill="#CE8A00"></rect><circle cx="79.91" cy="182.5" r="4" fill="#FBC834"></circle><circle cx="120.1" cy="182.5" r="4" fill="#FBC834"></circle><rect x="99" y="172.7" width="2" height="19.6" fill="#D1D3D4"></rect><polygon points="128.1 143.4 128.1 192.3 164 192.3 164 154.1" fill="#2B3990"></polygon><polygon points="71.91 143.4 36 154.1 36 192.3 71.91 192.3" fill="#2B3990"></polygon><polygon points="71.91 142.4 36 153.1 36 158.1 71.91 147.4" fill="#CE8A00"></polygon><polygon points="128.1 142.4 128.1 147.4 164 158.1 164 153.1" fill="#CE8A00"></polygon><path d="m107.2 155.1c-3.006 0.886-6.178 5.325-6.178 8.955v8.67c7.609-0.139 22.37-2.03 27.09-15.63v-16.51c-4.4 7.4-12.8 12-20.9 14.4z" fill="#FBC834"></path><path d="m99 164c0-3.63-3.171-8.069-6.178-8.955-8.15-2.397-16.52-6.961-20.91-14.51v16.51c4.72 13.6 19.48 15.49 27.09 15.63v-8.6z" fill="#FBC834"></path><path d="m127.7 139c-0.209-0.064-0.438 0.016-0.562 0.194-4.574 6.693-12.38 10.83-20 13.07-4.256 1.253-7.177 5.148-7.177 9.587 0-4.438-2.921-8.334-7.178-9.587-7.617-2.242-15.42-6.375-20-13.07-0.124-0.182-0.352-0.262-0.561-0.194-0.209 0.063-0.354 0.259-0.354 0.479v1.147c4.395 7.553 12.76 12.11 20.91 14.51 3.006 0.886 6.178 5.325 6.178 8.955v8.683h2v-8.683c0-3.63 3.172-8.069 6.18-8.955 8.148-2.397 16.52-6.961 20.91-14.51v-1.147c0.1-0.3-0.1-0.5-0.3-0.5z" fill="#CE8A00"></path><circle cx="124.7" cy="32.87" r="3.911" fill="#FBC834"></circle></g></svg>