<svg viewBox="0 0 192 192" xmlns="http://www.w3.org/2000/svg" width="192" height="192"><g transform="rotate(0 3.14 2.18) translate(34.123551395105956 13.523221554696107) scale(0.6036726693160395)"><defs><style>.cls-1{fill:#f8efe3;}.cls-1,.cls-2{stroke:#dbc6b1;stroke-width:2.08px;}.cls-1,.cls-2,.cls-4{stroke-miterlimit:10;}.cls-2{fill:none;}.cls-3{fill:#211f3d;}.cls-4{fill:#c12929;stroke:#7c241e;}.cls-5{fill:#630c25;}.cls-6{fill:#1f050b;}.cls-7{fill:#ffd636;isolation:isolate;}.cls-8{fill:#f57e20;}</style></defs><g data-name="Layer 1"><path class="cls-1" d="M73.58,32.22A31.8,31.8,0,0,0,62.36,40a42.11,42.11,0,0,0-7.67,11.44,48.62,48.62,0,0,0-4,13.28,72.54,72.54,0,0,0-.9,14,159.51,159.51,0,0,0,3.87,28.08c1.91,9.36,4,18.83,5.08,28.61A77.51,77.51,0,0,1,59,150.31a41.26,41.26,0,0,1-1.38,7.57A42.54,42.54,0,0,1,54.85,165c-2.18,4.46-4.75,8.47-6.92,12.55s-4,8.24-4.4,12.59a24.48,24.48,0,0,0-.08,3.34c0,1.15.11,2.29.23,3.4a15,15,0,0,0,1.85,6,24.19,24.19,0,0,0,2,2.67,19.37,19.37,0,0,1,2.13,3.18,15.32,15.32,0,0,1,.82,1.8c.22.6.42,1.16.61,1.78a11.62,11.62,0,0,1,.68,4,6.74,6.74,0,0,1-.44,2.14,18,18,0,0,1-.77,1.75c-.53,1.07-1,2.1-1.46,3.18a28.18,28.18,0,0,0-1.15,3.26,8.6,8.6,0,0,0-.32,3.23,4,4,0,0,0,1.55,2.6c.42.35.89.68,1.37,1.06a5.91,5.91,0,0,1,.68.65c.2.24.39.47.57.72A5.83,5.83,0,0,1,53,238.37a5,5,0,0,1-1.43,3.26,4.89,4.89,0,0,0,1.08-3.25,5.27,5.27,0,0,0-1.45-3c-.19-.21-.39-.41-.59-.61a6.55,6.55,0,0,0-.63-.49c-.46-.3-1-.58-1.47-.93A6,6,0,0,1,47.14,232a5.08,5.08,0,0,1-.85-1.86,9.4,9.4,0,0,1,0-3.92,28.76,28.76,0,0,1,1-3.6c.38-1.17.83-2.33,1.28-3.43a7.42,7.42,0,0,0,.74-3,9.62,9.62,0,0,0-.75-3c-.19-.52-.42-1.07-.64-1.57a14.78,14.78,0,0,0-.75-1.42,15.42,15.42,0,0,0-2-2.56,25.88,25.88,0,0,1-2.38-2.88,17.75,17.75,0,0,1-2.73-7.42,37.66,37.66,0,0,1-.42-3.78,29.16,29.16,0,0,1-.06-3.87c.3-5.31,2.26-10.16,4.44-14.5s4.62-8.42,6.52-12.57a44.42,44.42,0,0,0,2.36-6.28,36.87,36.87,0,0,0,1.14-6.6,72.59,72.59,0,0,0-.4-13.86c-.92-9.37-3-18.69-4.74-28.17s-3.3-19.2-3.13-29.08A72.2,72.2,0,0,1,47.4,64a51.5,51.5,0,0,1,5.1-13.81,42.34,42.34,0,0,1,8.92-11.3,32.63,32.63,0,0,1,5.75-4.08A29.12,29.12,0,0,1,73.58,32.22Z"></path><path class="cls-1" d="M92.66,32.22a29,29,0,0,1,6.42,2.57,33,33,0,0,1,5.75,4.08,42.54,42.54,0,0,1,8.92,11.3A51.14,51.14,0,0,1,118.84,64a71.5,71.5,0,0,1,1.6,14.72c.18,9.88-1.4,19.6-3.12,29.08s-3.82,18.8-4.74,28.17a72.59,72.59,0,0,0-.4,13.86,36.87,36.87,0,0,0,1.14,6.6,43.23,43.23,0,0,0,2.36,6.28c1.9,4.15,4.34,8.2,6.52,12.57s4.14,9.19,4.44,14.5a27.53,27.53,0,0,1-.07,3.87,37.62,37.62,0,0,1-.41,3.78,17.75,17.75,0,0,1-2.73,7.42,25.88,25.88,0,0,1-2.38,2.88,15.42,15.42,0,0,0-2,2.56,14.78,14.78,0,0,0-.75,1.42c-.22.5-.46,1.05-.65,1.57a9.87,9.87,0,0,0-.74,3,7.26,7.26,0,0,0,.74,3c.44,1.1.9,2.26,1.27,3.43a28.77,28.77,0,0,1,1,3.6,9.75,9.75,0,0,1,0,3.92,5.27,5.27,0,0,1-.86,1.86,5.8,5.8,0,0,1-1.4,1.32c-.5.35-1,.63-1.47.93a6.55,6.55,0,0,0-.63.49c-.2.2-.4.4-.59.61a5.35,5.35,0,0,0-1.46,3,4.85,4.85,0,0,0,1.09,3.25,5,5,0,0,1-1.44-3.26,5.84,5.84,0,0,1,1.28-3.47c.18-.25.37-.48.56-.72a6.93,6.93,0,0,1,.69-.65c.47-.38,1-.71,1.37-1.06a4.05,4.05,0,0,0,1.54-2.6,8.21,8.21,0,0,0-.32-3.23,28.1,28.1,0,0,0-1.14-3.26c-.44-1.08-.93-2.11-1.46-3.18a18,18,0,0,1-.77-1.75,6.74,6.74,0,0,1-.44-2.14,11.38,11.38,0,0,1,.68-4c.18-.62.39-1.18.61-1.78a17.07,17.07,0,0,1,.81-1.8,19.41,19.41,0,0,1,2.14-3.18,24.19,24.19,0,0,0,2-2.67,15.16,15.16,0,0,0,1.85-6c.12-1.11.22-2.25.23-3.4a24.48,24.48,0,0,0-.08-3.34c-.43-4.35-2.25-8.52-4.4-12.59s-4.74-8.09-6.92-12.55a43.46,43.46,0,0,1-2.77-7.07,43,43,0,0,1-1.38-7.57,78.32,78.32,0,0,1,.29-14.95c1.07-9.78,3.18-19.25,5.09-28.61a159.51,159.51,0,0,0,3.87-28.08,73.35,73.35,0,0,0-.9-14,48.62,48.62,0,0,0-4-13.28A42.11,42.11,0,0,0,103.89,40,31.84,31.84,0,0,0,92.66,32.22Z"></path><path class="cls-1" d="M132.66,178.9c-7.22-6.13-9.53-15.66-9.71-25.46S125,134,126.43,124.32c2.21-15.28,2.3-31.1-1.52-46-2.07-8.12-5.42-16.12-11.21-21.87-12-12-30.89-11.16-47.1-7.75-4.76,1-9.66,2.24-13.52,5.37-4.09,3.3-6.55,8.36-8.48,13.42A104.22,104.22,0,0,0,39.34,122c1.74,10,5,20,4.53,30.15a41.65,41.65,0,0,1-10.59,26c-2.27,3.47-7.34,14.2-2.62,19.2s9.46,10.37,7.43,16.08-11.47,10.9-10.46,14.83,13.51,7.32,18.57,15.54c5.41,8.77,1.82,24.33-8.38,23.78,10.85-5.66,10.75-19.13-.73-26.46-10.94-7-13.68-9.47-13.51-13.76.2-5.2,11.77-11.43,10.64-17.5-.79-4.2-6-5.07-8.73-8.21-5.8-6.63-1.36-16.44-.08-20.5C21.56,179,20.8,173.39,21.9,169s3.52-8.46,4.27-13c1.55-9.22-4-17.89-6.55-26.86-3.29-11.49-1.48-42.52,4.8-52.53C19.74,74.4,17,69,16.27,63.64c-.48-3.75,2.19-21.76,3.95-23.91,3-3.67,5.39-.12,6.17-3.83,1.52-7.28,7.83-25.5,24.24-18.5C50.5,13.34,53.39,9.71,56.86,8s7.43-1.91,11.27-1.92a145.4,145.4,0,0,1,52.24,9.7c5.09,2,10.58,4.72,12.48,10.08A33.83,33.83,0,0,1,134,32.36c1.58,11.12,6.35-2.11,10.56,8.2s7,28.78-1.49,35.53c4.25,12.52,8.49,44.54,3.49,56.75-2.63,6.42-7.74,12.08-7.75,19.07,0,6.19,4,11.51,5.52,17.48a23.09,23.09,0,0,1-2.39,16.53c1.28,4.06,3.63,9.07-2.17,15.7-2.75,3.14-7.94,4-8.73,8.21-1.13,6.07,10.44,12.3,10.64,17.5.17,4.29-2.57,6.79-13.51,13.76-11.48,7.33-11.58,20.8-.73,26.46-10.2.55-13.79-15-8.38-23.78,5.06-8.22,17.56-11.61,18.57-15.54s-8.44-9.11-10.46-14.83,2.7-11.08,7.43-16.08S134.94,182.37,132.66,178.9Z"></path><path class="cls-2" d="m139.1 150c-6.08 2.14-11.15 6.43-12.41 21.44"></path><path class="cls-2" d="m104.1 48.64c1.26-4.83 4.81-22.25 20-30.83"></path><path class="cls-2" d="M46.12,16.29c5.75.06,19.64,10.85,23.29,15.47s8.2,14.55,8.2,14.55c-6.76.72-15.32.28-22.79,1.16C39.89,49.23,26.55,36.56,26.55,36.56"></path><path class="cls-2" d="M77.44,46.13c1.76,1,16.07.64,19.59.64,0,0-1.76-35.68-23.65-40.19S50.52,17.32,50.52,17.32"></path><path class="cls-1" d="m25.6 145.1c3.55 4.83 15.71 10.19 16 18.5"></path><path class="cls-2" d="m25.41 181.1c1.71 1.54 3 3.42 3.23 9.85"></path><path class="cls-2" d="m141.9 185.9c-3.11 2.1-3.62 3.44-5.65 7.19"></path><path class="cls-2" d="m134.9 37.23c-5.32 7-13.55 13.28-25.2 16.5"></path><path class="cls-3" d="m183.5 180.4a13 13 0 0 0-4.55 11.76s-10.8-5-15.23 5c0 0-7.67-8.46-12.82-4.07l-1.44-2.24 1.61-3.58s13.89-2.89 18.26-6.22z"></path><path class="cls-4" d="M154.46,182.24c1.21.61,9-.84,13.16-4.64l21-2.73s-2.39,4.65-5.12,5.55-12.15.91-13.31,1.36-11.13,7-18.95,5.21l0-2Z"></path><path class="cls-3" d="m110 170a13 13 0 0 1 1.7 12.5s11.67-2.41 13.67 8.36c0 0 9.41-6.46 13.41-1l1.92-1.86-0.73-3.86s-12.85-6-16.33-10.27z"></path><path class="cls-4" d="M137.8,178.47c-1.32.32-8.56-2.89-11.74-7.55l-19.76-7.51s1.25,5.07,3.7,6.58,11.61,3.7,12.63,4.4,9.2,9.4,17.23,9.46l.5-1.93Z"></path><path class="cls-4" d="M155.78,207.4c-5.14-.52-9-2.34-11.25-5.35a9.46,9.46,0,0,1-2-5.85l.41.21a4.7,4.7,0,0,0,2.25.46,16.79,16.79,0,0,0,4.46-.83,9.85,9.85,0,0,0,1.25,7A12.73,12.73,0,0,0,155.78,207.4Z"></path><path class="cls-5" d="m152.1 185.8-11.45-4.43c-2.19 1.89-5.58 5.55-5.44 9a10 10 0 0 0 3.25 6.71 9.2 9.2 0 0 0 1.65 1.4 4.53 4.53 0 0 0 2.15 0.61 11.79 11.79 0 0 0 4.86-0.62 8.56 8.56 0 0 0 1.44-0.67 8.35 8.35 0 0 0 1.88-1.53c2.32-2.5 2.1-7.56 1.66-10.47z"></path><path class="cls-5" d="M150.66,193.59c.63,1.32,1.29,3.44,2,4.72a56.61,56.61,0,0,0-3.6,4.37,2.22,2.22,0,0,0,.22,2.91c.5.57-.95,3.12-.95,3.12s-2.68-4.18-2.76-4.6,1.62-1.46,2.43-2.43,2.73-3,2.74-3.5-1.45-2.09-1.45-2.09Z"></path><path class="cls-5" d="M136.78,191.9c-.88,1.17-1.95,3.12-2.91,4.23,0,0,2.07,3.52,2.66,5a2.22,2.22,0,0,1-.8,2.81c-.6.46.32,3.24.32,3.24s3.45-3.56,3.62-4-1.3-1.75-1.91-2.86-2.07-3.52-2-4,1.85-1.76,1.85-1.76Z"></path><path class="cls-3" d="m146.7 173a21.77 21.77 0 0 1 1.21-10.4 16.45 16.45 0 0 1-0.12 10.62z"></path><path class="cls-4" d="m154.8 172.9a8.48 8.48 0 0 0-1.64 1.91c-1.14-2.94 0.3-8.49 0.3-8.49a9.91 9.91 0 0 0-2.93 3.31 5.62 5.62 0 0 0-3.3-1.43 6 6 0 0 0-3.27 1 9.79 9.79 0 0 0-2.55-3.61s0.83 5.68-0.62 8.48a8.35 8.35 0 0 0-1.42-2.09c-0.64-0.5-0.33 2.93-0.15 5.92s1.52 8.81 3.39 11.55a8.43 8.43 0 0 0 3 2.67 7.36 7.36 0 0 0 4.11-2.24c2.39-2.3 4.11-8.17 4.61-11.12s1.16-6.3 0.47-5.86z"></path><path class="cls-6" d="m149.7 182.7c0.51-1.89 1.22-2.54 2.06-2.87a8.3 8.3 0 0 1-0.51 2 1.65 1.65 0 0 1-1.55 0.87z"></path><path class="cls-6" d="m143.4 182.3c-0.3-1.93-0.94-2.66-1.74-3.08a8.19 8.19 0 0 0 0.29 2.06 1.66 1.66 0 0 0 1.45 1.02z"></path><path class="cls-7" d="m144.4 192.1a19.18 19.18 0 0 0-1.5 1.91c-4.42 6.28-13.11 22.39-15.25 25.19 0 0 4.5-2.64 5.92-4.2s3 2.57 3 2.57z"></path><path class="cls-8" d="M135.67,213.94a3.82,3.82,0,0,0-1.34-.3,4.19,4.19,0,0,0-1.27.09c.69-1.18,1.44-2.46,2.21-3.8,1.12-1.93,2.29-4,3.44-5.9Z"></path><path class="cls-7" d="m147.2 192.3a17.26 17.26 0 0 1 1.18 2.12c3.4 6.88 9.49 24.15 11.16 27.25 0 0-4-3.31-5.19-5.07s-3.39 2.07-3.39 2.07z"></path><path class="cls-8" d="M150.88,205c.83,2.11,1.67,4.28,2.47,6.36l1.6,4.11a4.32,4.32,0,0,0-1.25-.29,3.73,3.73,0,0,0-1.36.09Z"></path></g></g></svg>