<svg viewBox="0 0 192 192" xmlns="http://www.w3.org/2000/svg" xmlns:xlink="http://www.w3.org/1999/xlink" width="192" height="192"><g transform="rotate(0 3.14 2.18) translate(13.662256606320213 34.98847392675529) scale(1.4835629440302665)"><defs><style>.cls-1{isolation:isolate;}.cls-2{opacity:0.75;}.cls-110,.cls-3{fill:#fff;}.cls-4{fill:#efcf33;}.cls-5{fill:url(#b);}.cls-6{fill:url(#gq);}.cls-7{fill:url(#dd);}.cls-8{fill:url(#dk);}.cls-9{fill:url(#dl);}.cls-10{fill:url(#dm);}.cls-11{fill:url(#dn);}.cls-12{fill:url(#do);}.cls-13{fill:url(#dp);}.cls-14{fill:url(#gg);}.cls-15{fill:url(#gh);}.cls-16{fill:url(#gi);}.cls-17{fill:url(#gj);}.cls-18{fill:url(#gk);}.cls-19{fill:url(#gl);}.cls-20{fill:url(#gm);}.cls-21{fill:url(#gn);}.cls-22{fill:url(#go);}.cls-23{fill:url(#gp);}.cls-24{fill:url(#gr);}.cls-25{fill:url(#gs);}.cls-26{fill:url(#gt);}.cls-27{fill:url(#gu);}.cls-28{fill:url(#gv);}.cls-29{fill:url(#gw);}.cls-30{fill:url(#gx);}.cls-31{fill:url(#gy);}.cls-32{fill:url(#db);}.cls-33{fill:url(#dc);}.cls-34{fill:url(#de);}.cls-35{fill:url(#df);}.cls-36{fill:url(#dg);}.cls-37{fill:url(#dh);}.cls-38{fill:url(#di);}.cls-39{fill:url(#dj);}.cls-40{fill:url(#a);}.cls-41{fill:url(#ei);}.cls-42{fill:url(#et);}.cls-43{fill:url(#fe);}.cls-44{fill:url(#fp);}.cls-45{fill:url(#ga);}.cls-46{fill:url(#gd);}.cls-47{fill:url(#ge);}.cls-48{fill:url(#gf);}.cls-49{fill:url(#dx);}.cls-50{fill:url(#dz);}.cls-51{fill:url(#ea);}.cls-52{fill:url(#eb);}.cls-53{fill:url(#ec);}.cls-54{fill:url(#ed);}.cls-55{fill:url(#ee);}.cls-56{fill:url(#ef);}.cls-57{fill:url(#eg);}.cls-58{fill:url(#eh);}.cls-59{fill:url(#ej);}.cls-60{fill:url(#ek);}.cls-61{fill:url(#el);}.cls-62{fill:url(#em);}.cls-63{fill:url(#en);}.cls-64{fill:url(#eo);}.cls-65{fill:url(#ep);}.cls-66{fill:url(#eq);}.cls-67{fill:url(#er);}.cls-68{fill:url(#es);}.cls-69{fill:url(#eu);}.cls-70{fill:url(#ev);}.cls-71{fill:url(#ew);}.cls-72{fill:url(#ex);}.cls-73{fill:url(#ey);}.cls-74{fill:url(#ez);}.cls-75{fill:url(#fa);}.cls-76{fill:url(#fb);}.cls-77{fill:url(#fc);}.cls-78{fill:url(#fd);}.cls-79{fill:url(#ff);}.cls-80{fill:url(#fg);}.cls-81{fill:url(#fh);}.cls-82{fill:url(#fi);}.cls-83{fill:url(#fj);}.cls-84{fill:url(#fk);}.cls-85{fill:url(#fl);}.cls-86{fill:url(#fm);}.cls-87{fill:url(#fn);}.cls-88{fill:url(#fo);}.cls-89{fill:url(#fq);}.cls-90{fill:url(#fr);}.cls-91{fill:url(#fs);}.cls-92{fill:url(#ft);}.cls-93{fill:url(#fu);}.cls-94{fill:url(#fv);}.cls-95{fill:url(#fw);}.cls-96{fill:url(#fx);}.cls-97{fill:url(#fy);}.cls-98{fill:url(#fz);}.cls-99{fill:url(#gb);}.cls-100{fill:url(#gc);}.cls-101{fill:url(#c);}.cls-102{fill:url(#ds);}.cls-103{fill:url(#dt);}.cls-104{fill:url(#du);}.cls-105{fill:url(#dv);}.cls-106{fill:url(#dw);}.cls-107{fill:url(#dy);}.cls-108{fill:url(#dq);}.cls-109{fill:url(#dr);}.cls-110{opacity:0.3;mix-blend-mode:overlay;}</style><linearGradient id="b" x1="33.08" x2="33.5" y1="57.58" y2="57.58" gradientUnits="userSpaceOnUse"><stop stop-color="#fff" offset=".02"></stop><stop stop-color="#87d0cb" offset=".5"></stop><stop stop-color="#5eb6ca" offset=".67"></stop><stop stop-color="#3098c9" offset=".89"></stop><stop stop-color="#1e8cc9" offset="1"></stop></linearGradient><linearGradient id="gq" x1="51.13" x2="52.11" y1="68.3" y2="68.3" xlink:href="#b"></linearGradient><linearGradient id="dd" x1="62.04" x2="63.32" y1="65.97" y2="65.97" xlink:href="#b"></linearGradient><linearGradient id="dk" x1="90.74" x2="92.02" y1="38.62" y2="38.62" xlink:href="#b"></linearGradient><linearGradient id="dl" x1="22.34" x2="23.62" y1="49.89" y2="49.89" xlink:href="#b"></linearGradient><linearGradient id="dm" x1="21.15" x2="21.87" y1="53.62" y2="53.62" xlink:href="#b"></linearGradient><linearGradient id="dn" x1="24.23" x2="25.19" y1="44.78" y2="44.78" xlink:href="#b"></linearGradient><linearGradient id="do" x1="23.66" x2="24.26" y1="47.09" y2="47.09" xlink:href="#b"></linearGradient><linearGradient id="dp" x1="26.46" x2="27.06" y1="46.87" y2="46.87" xlink:href="#b"></linearGradient><linearGradient id="gg" x1="29.14" x2="29.77" y1="40.8" y2="40.8" xlink:href="#b"></linearGradient><linearGradient id="gh" x1="69.98" x2="71.26" y1="60.81" y2="60.81" xlink:href="#b"></linearGradient><linearGradient id="gi" x1="88.22" x2="89.33" y1="30.73" y2="30.73" xlink:href="#b"></linearGradient><linearGradient id="gj" x1="64.8" x2="65.57" y1="20.52" y2="20.52" xlink:href="#b"></linearGradient><linearGradient id="gk" x1="67.25" x2="68.02" y1="19.43" y2="19.43" xlink:href="#b"></linearGradient><linearGradient id="gl" x1="72.96" x2="73.59" y1="20.4" y2="20.4" xlink:href="#b"></linearGradient><linearGradient id="gm" x1="68.43" x2="68.8" y1="22.04" y2="22.04" xlink:href="#b"></linearGradient><linearGradient id="gn" x1="58.5" x2="58.87" y1="21.93" y2="21.93" xlink:href="#b"></linearGradient><linearGradient id="go" x1="55.9" x2="56.27" y1="22.28" y2="22.28" xlink:href="#b"></linearGradient><linearGradient id="gp" x1="74.3" x2="75.23" y1="60.16" y2="60.16" xlink:href="#b"></linearGradient><linearGradient id="gr" x1="81" x2="81.93" y1="55.08" y2="55.08" xlink:href="#b"></linearGradient><linearGradient id="gs" x1="84.12" x2="85.39" y1="52.87" y2="52.87" xlink:href="#b"></linearGradient><linearGradient id="gt" x1="87.99" x2="88.87" y1="48.75" y2="48.75" xlink:href="#b"></linearGradient><linearGradient id="gu" x1="76.45" x2="77.24" y1="41.28" y2="41.28" xlink:href="#b"></linearGradient><linearGradient id="gv" x1="77.37" x2="77.98" y1="33.79" y2="33.79" xlink:href="#b"></linearGradient><linearGradient id="gw" x1="77.12" x2="78.27" y1="39.63" y2="39.63" xlink:href="#b"></linearGradient><linearGradient id="gx" x1="77.46" x2="78.6" y1="35.76" y2="35.76" xlink:href="#b"></linearGradient><linearGradient id="gy" x1="78.58" x2="79.72" y1="34.55" y2="34.55" xlink:href="#b"></linearGradient><linearGradient id="db" x1="81.06" x2="81.94" y1="36.41" y2="36.41" xlink:href="#b"></linearGradient><linearGradient id="dc" x1="69.72" x2="70.42" y1="49.18" y2="49.18" xlink:href="#b"></linearGradient><linearGradient id="de" x1="74.37" x2="74.94" y1="42.85" y2="42.85" xlink:href="#b"></linearGradient><linearGradient id="df" x1="78.78" x2="79.34" y1="41.92" y2="41.92" xlink:href="#b"></linearGradient><linearGradient id="dg" x1="65.45" x2="66.02" y1="52.84" y2="52.84" xlink:href="#b"></linearGradient><linearGradient id="dh" x1="62.72" x2="63.15" y1="54.7" y2="54.7" xlink:href="#b"></linearGradient><linearGradient id="di" x1="20.4" x2="21.52" y1="47.45" y2="47.45" xlink:href="#b"></linearGradient><linearGradient id="dj" x1="24.31" x2="24.86" y1="40.49" y2="40.49" xlink:href="#b"></linearGradient><linearGradient id="a" x1="68.69" x2="69.89" y1="64.37" y2="64.37" gradientUnits="userSpaceOnUse"><stop stop-color="#e1bbd8" offset="0"></stop><stop stop-color="#d8b6d5" offset=".11"></stop><stop stop-color="#c0a7cc" offset=".29"></stop><stop stop-color="#988fbe" offset=".52"></stop><stop stop-color="#616daa" offset=".79"></stop><stop stop-color="#315099" offset="1"></stop></linearGradient><linearGradient id="ei" x1="59.46" x2="60.66" y1="64.46" y2="64.46" xlink:href="#a"></linearGradient><linearGradient id="et" x1="24.86" x2="25.76" y1="52.53" y2="52.53" xlink:href="#a"></linearGradient><linearGradient id="fe" x1="20.18" x2="20.9" y1="50.95" y2="50.95" xlink:href="#a"></linearGradient><linearGradient id="fp" x1="28.53" x2="28.95" y1="58.42" y2="58.42" xlink:href="#a"></linearGradient><linearGradient id="ga" x1="23.19" x2="23.76" y1="56.4" y2="56.4" xlink:href="#a"></linearGradient><linearGradient id="gd" x1="18.61" x2="19.54" y1="52.79" y2="52.79" xlink:href="#a"></linearGradient><linearGradient id="ge" x1="19.82" x2="20.23" y1="52.57" y2="52.57" xlink:href="#a"></linearGradient><linearGradient id="gf" x1="17.34" x2="17.92" y1="45.44" y2="45.44" xlink:href="#a"></linearGradient><linearGradient id="dx" x1="22.73" x2="23.3" y1="36.83" y2="36.83" xlink:href="#a"></linearGradient><linearGradient id="dz" x1="26.8" x2="27.23" y1="37.06" y2="37.06" xlink:href="#a"></linearGradient><linearGradient id="ea" x1="24.62" x2="25.22" y1="39.05" y2="39.05" xlink:href="#a"></linearGradient><linearGradient id="eb" x1="21.41" x2="22" y1="44.14" y2="44.14" xlink:href="#a"></linearGradient><linearGradient id="ec" x1="31.18" x2="31.63" y1="32.15" y2="32.15" xlink:href="#a"></linearGradient><linearGradient id="ed" x1="28.9" x2="29.34" y1="32.67" y2="32.67" xlink:href="#a"></linearGradient><linearGradient id="ee" x1="18.74" x2="19.18" y1="39.41" y2="39.41" xlink:href="#a"></linearGradient><linearGradient id="ef" x1="28.15" x2="28.6" y1="34.78" y2="34.78" xlink:href="#a"></linearGradient><linearGradient id="eg" x1="15.37" x2="15.95" y1="49.5" y2="49.5" xlink:href="#a"></linearGradient><linearGradient id="eh" x1="34.89" x2="35.31" y1="60.81" y2="60.81" xlink:href="#a"></linearGradient><linearGradient id="ej" x1="63.13" x2="64.13" y1="61.79" y2="61.79" xlink:href="#a"></linearGradient><linearGradient id="ek" x1="70.32" x2="71.52" y1="58.31" y2="58.31" xlink:href="#a"></linearGradient><linearGradient id="el" x1="67.43" x2="68.63" y1="67.8" y2="67.8" xlink:href="#a"></linearGradient><linearGradient id="em" x1="58.66" x2="59.56" y1="73.35" y2="73.35" xlink:href="#a"></linearGradient><linearGradient id="en" x1="75.77" x2="76.33" y1="71.83" y2="71.83" xlink:href="#a"></linearGradient><linearGradient id="eo" x1="91.31" x2="91.87" y1="54.48" y2="54.48" xlink:href="#a"></linearGradient><linearGradient id="ep" x1="57.77" x2="58.33" y1="18.58" y2="18.58" xlink:href="#a"></linearGradient><linearGradient id="eq" x1="94.23" x2="95.13" y1="52.66" y2="52.66" xlink:href="#a"></linearGradient><linearGradient id="er" x1="47.3" x2="48.2" y1="77.21" y2="77.21" xlink:href="#a"></linearGradient><linearGradient id="es" x1="73.77" x2="74.75" y1="63.9" y2="63.9" xlink:href="#a"></linearGradient><linearGradient id="eu" x1="91.42" x2="92.4" y1="49.01" y2="49.01" xlink:href="#a"></linearGradient><linearGradient id="ev" x1="92.99" x2="93.96" y1="34.1" y2="34.1" xlink:href="#a"></linearGradient><linearGradient id="ew" x1="86.28" x2="87.26" y1="43.55" y2="43.55" xlink:href="#a"></linearGradient><linearGradient id="ex" x1="33.07" x2="33.86" y1="73.85" y2="73.85" xlink:href="#a"></linearGradient><linearGradient id="ey" x1="81.62" x2="82.91" y1="61" y2="61" xlink:href="#a"></linearGradient><linearGradient id="ez" x1="99.01" x2="100.3" y1="33" y2="33" xlink:href="#a"></linearGradient><linearGradient id="fa" x1="96.02" x2="96.98" y1="29.08" y2="29.08" xlink:href="#a"></linearGradient><linearGradient id="fb" x1="59.6" x2="60.26" y1="18.29" y2="18.29" xlink:href="#a"></linearGradient><linearGradient id="fc" x1="46.67" x2="47.06" y1="22.29" y2="22.29" xlink:href="#a"></linearGradient><linearGradient id="fd" x1="60.88" x2="61.26" y1="21.89" y2="21.89" xlink:href="#a"></linearGradient><linearGradient id="ff" x1="55.12" x2="55.5" y1="19.53" y2="19.53" xlink:href="#a"></linearGradient><linearGradient id="fg" x1="95.89" x2="96.85" y1="40.09" y2="40.09" xlink:href="#a"></linearGradient><linearGradient id="fh" x1="78" x2="79.77" y1="64.61" y2="64.61" xlink:href="#a"></linearGradient><linearGradient id="fi" x1="22.86" x2="23.65" y1="71.04" y2="71.04" xlink:href="#a"></linearGradient><linearGradient id="fj" x1="73.19" x2="74.09" y1="57.34" y2="57.34" xlink:href="#a"></linearGradient><linearGradient id="fk" x1="79.28" x2="80.18" y1="58.86" y2="58.86" xlink:href="#a"></linearGradient><linearGradient id="fl" x1="81.2" x2="82.1" y1="52.92" y2="52.92" xlink:href="#a"></linearGradient><linearGradient id="fm" x1="37.98" x2="38.63" y1="70.66" y2="70.66" xlink:href="#a"></linearGradient><linearGradient id="fn" x1="30.91" x2="31.56" y1="70.09" y2="70.09" xlink:href="#a"></linearGradient><linearGradient id="fo" x1="44.4" x2="45.05" y1="71.28" y2="71.28" xlink:href="#a"></linearGradient><linearGradient id="fq" x1="47.29" x2="48.27" y1="67.53" y2="67.53" xlink:href="#a"></linearGradient><linearGradient id="fr" x1="81.45" x2="82.43" y1="25.93" y2="25.93" xlink:href="#a"></linearGradient><linearGradient id="fs" x1="61.55" x2="62.53" y1="17.84" y2="17.84" xlink:href="#a"></linearGradient><linearGradient id="ft" x1="72.8" x2="73.5" y1="58.08" y2="58.08" xlink:href="#a"></linearGradient><linearGradient id="fu" x1="88.35" x2="89.05" y1="39.98" y2="39.98" xlink:href="#a"></linearGradient><linearGradient id="fv" x1="67.97" x2="68.5" y1="61.06" y2="61.06" xlink:href="#a"></linearGradient><linearGradient id="fw" x1="74.64" x2="75.84" y1="56.78" y2="56.78" xlink:href="#a"></linearGradient><linearGradient id="fx" x1="85.02" x2="86.07" y1="49.27" y2="49.27" xlink:href="#a"></linearGradient><linearGradient id="fy" x1="83.49" x2="84.69" y1="45.26" y2="45.26" xlink:href="#a"></linearGradient><linearGradient id="fz" x1="88.42" x2="89.62" y1="36.05" y2="36.05" xlink:href="#a"></linearGradient><linearGradient id="gb" x1="57.08" x2="57.76" y1="69.53" y2="69.53" xlink:href="#a"></linearGradient><linearGradient id="gc" x1="70.83" x2="71.51" y1="63.32" y2="63.32" xlink:href="#a"></linearGradient><radialGradient id="c" cx="41.98" cy="42.91" r=".81" gradientUnits="userSpaceOnUse"><stop stop-color="#f8fdfe" offset="0"></stop><stop stop-color="#f4fcfe" offset=".27"></stop><stop stop-color="#e9f8fd" offset=".51"></stop><stop stop-color="#d7f1fc" offset=".74"></stop><stop stop-color="#bde7fa" offset=".97"></stop><stop stop-color="#b9e6fa" offset="1"></stop></radialGradient><radialGradient id="ds" cx="55.5" cy="43.94" xlink:href="#c"></radialGradient><radialGradient id="dt" cx="42.29" cy="41.04" xlink:href="#c"></radialGradient><radialGradient id="du" cx="65.39" cy="37.31" xlink:href="#c"></radialGradient><radialGradient id="dv" cx="64.4" cy="38.81" r=".34" xlink:href="#c"></radialGradient><radialGradient id="dw" cx="49.02" cy="35.51" r=".28" xlink:href="#c"></radialGradient><radialGradient id="dy" cx="55.63" cy="31.69" r=".37" xlink:href="#c"></radialGradient><linearGradient id="dq" x1="11.39" x2="15.27" y1="33.97" y2="33.97" gradientUnits="userSpaceOnUse"><stop stop-color="#e1bbd8" offset="0"></stop><stop stop-color="#a1bdd2" offset=".39"></stop><stop stop-color="#3ec0c9" offset="1"></stop></linearGradient><linearGradient id="dr" x1="91.77" x2="97.03" y1="45.14" y2="45.14" gradientUnits="userSpaceOnUse"><stop stop-color="#e1bbd8" offset="0"></stop><stop stop-color="#d9b6d5" offset=".11"></stop><stop stop-color="#c2a8cd" offset=".29"></stop><stop stop-color="#9c91bf" offset=".51"></stop><stop stop-color="#6872ad" offset=".76"></stop><stop stop-color="#315099" offset="1"></stop></linearGradient></defs><g class="cls-1"><g data-name="Layer 1"><g class="cls-2"><path class="cls-3" d="M36.51,42.27C36,36.64,43.76,30.13,53.75,27,62.68,24.25,72,24.6,76.34,28c-3.83-4.9-15.17-5.63-26-2.28S30.51,36.21,30.59,42.42c.11,7.2,11.83,10.46,26.41,6.24C45.75,50.84,37,48,36.51,42.27Z"></path></g><g class="cls-2"><path class="cls-3" d="M24.5,45.94c-.74-9.45,12.37-20.28,29-25.4,14.79-4.56,30.2-4,37.51,1.6-6.48-8-25.24-9.26-43.14-3.77C29.62,24,14.61,35.77,14.56,46.21,14.5,58.43,34.27,64,59,56.78,39.93,60.52,25.26,55.64,24.5,45.94Z"></path></g><g class="cls-2"><path class="cls-3" d="m68.25 32c2.23 3.5-2.22 8.89-10.37 11.48-7.39 2.35-13.68 1-14.82-2.4 0.14 5 8.18 7.42 17.89 4.32s14.51-9.54 11.47-13.62c-2.46-3.3-9.48-4-16.21-2 5.28-1.16 10.35-0.4 12.04 2.22z"></path></g><g class="cls-2"><path class="cls-4" d="M19.65,46.79c.49,7.22,9,11.69,21.45,11.77-11.69-.48-19.62-5-20.14-12.07C20.4,39,28.57,30.61,40.25,24.92,27.92,30.59,19.13,39.18,19.65,46.79Z"></path><path class="cls-4" d="m33.28 42.68c0.35 4.08 5.21 6.59 12.27 6.64-6.63-0.27-11.16-2.81-11.52-6.81-0.39-4.27 4.23-9.09 10.93-12.38-7.07 3.28-12.05 8.21-11.68 12.55z"></path><path class="cls-4" d="m49.88 19.53c10.63-3.37 21.52-4.33 30-2.89-8.48-2-20-1.21-31.25 2.35-17.79 5.64-32.44 17.5-32.48 28a11.32 11.32 0 0 0 0.17 1.95v-0.42c0.03-10.87 15.17-23.16 33.56-28.99z"></path><path class="cls-4" d="m51.26 26.42c6.93-2.36 14.06-2.86 19.19-1.49-5-1.81-12.44-1.46-19.68 1-9.27 3.15-16.94 9.35-18.2 15.12 2.05-5.69 9.64-11.55 18.69-14.63z"></path><path class="cls-4" d="M91.23,29.21c-3.08-4.55-10-6.93-18.47-7.18,7.66.59,13.91,3,16.81,7.42,5.07,7.61-1.26,18.6-15.32,26.61C89.35,48.1,96.38,36.84,91.23,29.21Z"></path><path class="cls-4" d="m71.35 31.52c1.69 4.14-3 10-11.72 13-5.51 1.87-10.48 1.84-13.7 0.46 3.07 1.78 8.38 2 14.34 0 9.07-3.09 13.67-9.39 11.08-13.46z"></path></g><path class="cls-4" d="m80.66 32.24-0.12-0.24c1.39 7.26-6 16.74-18.28 22.74 13.46-5.36 21.49-15.09 18.4-22.5z"></path><path class="cls-5" d="M33.5,57.58a.21.21,0,0,1-.21.21.21.21,0,0,1-.21-.21.22.22,0,0,1,.21-.21A.21.21,0,0,1,33.5,57.58Z"></path><path class="cls-6" d="M52.11,68.3a.49.49,0,1,1-.49-.49A.49.49,0,0,1,52.11,68.3Z"></path><path class="cls-7" d="M63.32,66A.64.64,0,0,1,62,66a.64.64,0,0,1,1.28,0Z"></path><path class="cls-8" d="M92,38.62a.64.64,0,0,1-.64.64.64.64,0,1,1,.64-.64Z"></path><path class="cls-9" d="M23.62,49.89a.64.64,0,0,1-.64.64.64.64,0,1,1,.64-.64Z"></path><path class="cls-10" d="M21.87,53.62a.36.36,0,1,1-.36-.36A.36.36,0,0,1,21.87,53.62Z"></path><path class="cls-11" d="M25.19,44.78a.48.48,0,0,1-.48.48.49.49,0,0,1-.48-.48.48.48,0,0,1,.48-.48A.47.47,0,0,1,25.19,44.78Z"></path><path class="cls-12" d="M24.26,47.09a.31.31,0,0,1-.3.3.3.3,0,0,1-.3-.3.29.29,0,0,1,.3-.3A.3.3,0,0,1,24.26,47.09Z"></path><path class="cls-13" d="M27.06,46.87a.29.29,0,0,1-.3.3.3.3,0,0,1-.3-.3.31.31,0,0,1,.3-.3A.3.3,0,0,1,27.06,46.87Z"></path><path class="cls-14" d="M29.77,40.8a.32.32,0,1,1-.31-.32A.31.31,0,0,1,29.77,40.8Z"></path><path class="cls-15" d="M71.26,60.81a.64.64,0,0,1-.64.64.64.64,0,0,1,0-1.28A.64.64,0,0,1,71.26,60.81Z"></path><path class="cls-16" d="M89.33,30.73a.56.56,0,1,1-.55-.56A.56.56,0,0,1,89.33,30.73Z"></path><path class="cls-17" d="M65.57,20.52a.39.39,0,0,1-.39.38.39.39,0,0,1,0-.77A.39.39,0,0,1,65.57,20.52Z"></path><path class="cls-18" d="M68,19.43a.39.39,0,1,1-.77,0,.39.39,0,0,1,.77,0Z"></path><path class="cls-19" d="M73.59,20.4a.32.32,0,0,1-.63,0,.32.32,0,1,1,.63,0Z"></path><path class="cls-20" d="M68.8,22a.19.19,0,0,1-.18.19.2.2,0,0,1-.19-.19.19.19,0,0,1,.19-.18A.18.18,0,0,1,68.8,22Z"></path><path class="cls-21" d="M58.87,21.93a.18.18,0,0,1-.19.18.18.18,0,0,1-.18-.18.18.18,0,0,1,.18-.19A.18.18,0,0,1,58.87,21.93Z"></path><path class="cls-22" d="M56.27,22.28a.18.18,0,0,1-.18.18.19.19,0,0,1-.19-.18.2.2,0,0,1,.19-.19A.19.19,0,0,1,56.27,22.28Z"></path><path class="cls-23" d="M75.23,60.16a.47.47,0,1,1-.47-.46A.47.47,0,0,1,75.23,60.16Z"></path><path class="cls-24" d="M81.93,55.08a.47.47,0,0,1-.93,0,.47.47,0,1,1,.93,0Z"></path><circle class="cls-25" cx="84.76" cy="52.87" r=".64"></circle><path class="cls-26" d="M88.87,48.75a.44.44,0,1,1-.88,0,.44.44,0,0,1,.88,0Z"></path><path class="cls-27" d="M77.24,41.28a.4.4,0,1,1-.39-.39A.4.4,0,0,1,77.24,41.28Z"></path><path class="cls-28" d="M78,33.79a.31.31,0,1,1-.61,0,.31.31,0,0,1,.61,0Z"></path><path class="cls-29" d="M78.27,39.63a.58.58,0,1,1-.57-.57A.57.57,0,0,1,78.27,39.63Z"></path><path class="cls-30" d="M78.6,35.76a.56.56,0,0,1-.57.57.57.57,0,1,1,0-1.14A.56.56,0,0,1,78.6,35.76Z"></path><path class="cls-31" d="M79.72,34.55a.57.57,0,0,1-1.14,0,.57.57,0,0,1,1.14,0Z"></path><path class="cls-32" d="M81.94,36.41A.44.44,0,1,1,81.5,36,.44.44,0,0,1,81.94,36.41Z"></path><path class="cls-33" d="M70.42,49.18a.35.35,0,0,1-.7,0,.35.35,0,0,1,.7,0Z"></path><path class="cls-34" d="M74.94,42.85a.29.29,0,1,1-.28-.28A.28.28,0,0,1,74.94,42.85Z"></path><path class="cls-35" d="M79.34,41.92a.28.28,0,1,1-.28-.29A.28.28,0,0,1,79.34,41.92Z"></path><path class="cls-36" d="M66,52.84a.29.29,0,1,1-.57,0,.29.29,0,0,1,.57,0Z"></path><path class="cls-37" d="M63.15,54.7a.22.22,0,1,1-.22-.22A.22.22,0,0,1,63.15,54.7Z"></path><path class="cls-38" d="M21.52,47.45a.56.56,0,1,1-.56-.56A.56.56,0,0,1,21.52,47.45Z"></path><path class="cls-39" d="M24.86,40.49a.28.28,0,1,1-.55,0,.28.28,0,1,1,.55,0Z"></path><path class="cls-40" d="M69.89,64.37a.6.6,0,1,1-.6-.6A.6.6,0,0,1,69.89,64.37Z"></path><path class="cls-41" d="M60.66,64.46a.6.6,0,1,1-1.2,0,.6.6,0,0,1,1.2,0Z"></path><path class="cls-42" d="M25.76,52.53a.45.45,0,0,1-.45.45.45.45,0,1,1,0-.9A.45.45,0,0,1,25.76,52.53Z"></path><path class="cls-43" d="M20.9,51a.36.36,0,1,1-.36-.36A.36.36,0,0,1,20.9,51Z"></path><path class="cls-44" d="M29,58.42a.21.21,0,0,1-.21.21.21.21,0,1,1,0-.42A.21.21,0,0,1,29,58.42Z"></path><path class="cls-45" d="M23.76,56.4a.29.29,0,0,1-.29.29.28.28,0,0,1-.28-.29.27.27,0,0,1,.28-.28A.28.28,0,0,1,23.76,56.4Z"></path><path class="cls-46" d="M19.54,52.79a.46.46,0,0,1-.46.47.47.47,0,1,1,0-.93A.46.46,0,0,1,19.54,52.79Z"></path><path class="cls-47" d="M20.23,52.57a.21.21,0,0,1-.21.21.2.2,0,0,1-.2-.21.2.2,0,0,1,.2-.2A.2.2,0,0,1,20.23,52.57Z"></path><path class="cls-48" d="M17.92,45.44a.29.29,0,0,1-.58,0,.29.29,0,1,1,.58,0Z"></path><path class="cls-49" d="M23.3,36.83a.28.28,0,0,1-.28.29.29.29,0,1,1,0-.57A.28.28,0,0,1,23.3,36.83Z"></path><path class="cls-50" d="M27.23,37.06a.22.22,0,0,1-.22.22.21.21,0,0,1-.21-.22.21.21,0,0,1,.21-.21A.21.21,0,0,1,27.23,37.06Z"></path><path class="cls-51" d="M25.22,39.05a.3.3,0,1,1-.3-.3A.3.3,0,0,1,25.22,39.05Z"></path><path class="cls-52" d="M22,44.14a.3.3,0,1,1-.3-.3A.29.29,0,0,1,22,44.14Z"></path><path class="cls-53" d="M31.63,32.15a.22.22,0,0,1-.23.22.22.22,0,0,1,0-.44A.22.22,0,0,1,31.63,32.15Z"></path><path class="cls-54" d="M29.34,32.67a.22.22,0,1,1-.22-.22A.22.22,0,0,1,29.34,32.67Z"></path><path class="cls-55" d="M19.18,39.41a.22.22,0,0,1-.22.22.22.22,0,1,1,0-.44A.22.22,0,0,1,19.18,39.41Z"></path><path class="cls-56" d="M28.6,34.78a.22.22,0,0,1-.23.22.22.22,0,0,1,0-.44A.22.22,0,0,1,28.6,34.78Z"></path><path class="cls-57" d="M16,49.5a.29.29,0,0,1-.58,0,.29.29,0,0,1,.58,0Z"></path><path class="cls-58" d="M35.31,60.81a.21.21,0,1,1-.42,0,.21.21,0,1,1,.42,0Z"></path><path class="cls-59" d="M64.13,61.79a.5.5,0,0,1-.5.5.51.51,0,0,1-.5-.5.5.5,0,0,1,.5-.5A.5.5,0,0,1,64.13,61.79Z"></path><path class="cls-60" d="M71.52,58.31a.6.6,0,0,1-1.2,0,.6.6,0,1,1,1.2,0Z"></path><path class="cls-61" d="M68.63,67.8a.6.6,0,1,1-.6-.6A.6.6,0,0,1,68.63,67.8Z"></path><path class="cls-62" d="M59.56,73.35a.45.45,0,0,1-.9,0,.45.45,0,0,1,.9,0Z"></path><path class="cls-63" d="M76.33,71.83a.29.29,0,0,1-.28.28.29.29,0,0,1,0-.57A.29.29,0,0,1,76.33,71.83Z"></path><circle class="cls-64" cx="91.59" cy="54.48" r=".28"></circle><circle class="cls-65" cx="58.05" cy="18.58" r=".28"></circle><path class="cls-66" d="M95.13,52.66a.45.45,0,1,1-.45-.45A.45.45,0,0,1,95.13,52.66Z"></path><path class="cls-67" d="M48.2,77.21a.45.45,0,1,1-.9,0,.45.45,0,0,1,.9,0Z"></path><path class="cls-68" d="M74.75,63.9a.49.49,0,1,1-.49-.49A.49.49,0,0,1,74.75,63.9Z"></path><path class="cls-69" d="M92.4,49a.49.49,0,1,1-.49-.48A.49.49,0,0,1,92.4,49Z"></path><path class="cls-70" d="M94,34.1a.48.48,0,0,1-.48.48.49.49,0,1,1,0-1A.48.48,0,0,1,94,34.1Z"></path><path class="cls-71" d="M87.26,43.55a.49.49,0,1,1-.49-.49A.49.49,0,0,1,87.26,43.55Z"></path><path class="cls-72" d="M33.86,73.85a.39.39,0,0,1-.39.4.4.4,0,0,1-.4-.4.39.39,0,0,1,.4-.39A.38.38,0,0,1,33.86,73.85Z"></path><path class="cls-73" d="M82.91,61a.65.65,0,1,1-.64-.64A.64.64,0,0,1,82.91,61Z"></path><path class="cls-74" d="M100.3,33a.65.65,0,1,1-.65-.64A.65.65,0,0,1,100.3,33Z"></path><path class="cls-75" d="M97,29.08a.48.48,0,0,1-.48.48.48.48,0,1,1,0-1A.48.48,0,0,1,97,29.08Z"></path><path class="cls-76" d="M60.26,18.29a.33.33,0,1,1-.33-.33A.33.33,0,0,1,60.26,18.29Z"></path><path class="cls-77" d="M47.06,22.29a.2.2,0,0,1-.2.19.2.2,0,0,1-.19-.19.2.2,0,1,1,.39,0Z"></path><path class="cls-78" d="M61.26,21.89a.19.19,0,0,1-.19.19.2.2,0,0,1-.19-.19.19.19,0,0,1,.19-.19A.18.18,0,0,1,61.26,21.89Z"></path><path class="cls-79" d="M55.5,19.53a.2.2,0,0,1-.19.19.19.19,0,0,1-.19-.19.18.18,0,0,1,.19-.19A.19.19,0,0,1,55.5,19.53Z"></path><path class="cls-80" d="M96.85,40.09a.48.48,0,0,1-.48.49.49.49,0,0,1,0-1A.48.48,0,0,1,96.85,40.09Z"></path><path class="cls-81" d="M79.77,64.61a.89.89,0,1,1-.88-.88A.88.88,0,0,1,79.77,64.61Z"></path><path class="cls-82" d="M23.65,71a.39.39,0,0,1-.39.4.4.4,0,0,1-.4-.4.39.39,0,0,1,.4-.39A.38.38,0,0,1,23.65,71Z"></path><path class="cls-83" d="M74.09,57.34a.45.45,0,1,1-.45-.46A.45.45,0,0,1,74.09,57.34Z"></path><path class="cls-84" d="M80.18,58.86a.45.45,0,1,1-.45-.46A.45.45,0,0,1,80.18,58.86Z"></path><path class="cls-85" d="M82.1,52.92a.45.45,0,1,1-.45-.45A.45.45,0,0,1,82.1,52.92Z"></path><path class="cls-86" d="M38.63,70.67a.32.32,0,0,1-.32.32.33.33,0,1,1,0-.65A.32.32,0,0,1,38.63,70.67Z"></path><path class="cls-87" d="M31.56,70.09a.33.33,0,0,1-.33.33.32.32,0,0,1-.32-.33.32.32,0,0,1,.32-.32A.32.32,0,0,1,31.56,70.09Z"></path><path class="cls-88" d="M45.05,71.27a.33.33,0,0,1-.33.33.33.33,0,0,1,0-.65A.32.32,0,0,1,45.05,71.27Z"></path><path class="cls-89" d="M48.27,67.53a.49.49,0,1,1-.49-.49A.49.49,0,0,1,48.27,67.53Z"></path><path class="cls-90" d="M82.43,25.93a.49.49,0,1,1-.49-.49A.49.49,0,0,1,82.43,25.93Z"></path><path class="cls-91" d="M62.53,17.84a.49.49,0,1,1-.49-.5A.49.49,0,0,1,62.53,17.84Z"></path><path class="cls-92" d="M73.5,58.08a.35.35,0,0,1-.35.35.35.35,0,1,1,0-.7A.35.35,0,0,1,73.5,58.08Z"></path><path class="cls-93" d="M89.05,40a.35.35,0,0,1-.35.35.35.35,0,0,1,0-.7A.35.35,0,0,1,89.05,40Z"></path><path class="cls-94" d="M68.5,61.06a.27.27,0,0,1-.53,0,.27.27,0,1,1,.53,0Z"></path><path class="cls-95" d="M75.84,56.78a.6.6,0,0,1-1.2,0,.6.6,0,0,1,1.2,0Z"></path><path class="cls-96" d="M86.07,49.27a.52.52,0,0,1-.52.53.53.53,0,0,1-.53-.53.52.52,0,0,1,.53-.52A.52.52,0,0,1,86.07,49.27Z"></path><path class="cls-97" d="M84.69,45.26a.6.6,0,1,1-1.2,0,.6.6,0,1,1,1.2,0Z"></path><path class="cls-98" d="M89.62,36.05a.6.6,0,1,1-.6-.6A.59.59,0,0,1,89.62,36.05Z"></path><path class="cls-99" d="M57.76,69.53a.34.34,0,0,1-.68,0,.34.34,0,1,1,.68,0Z"></path><path class="cls-100" d="M71.51,63.31a.34.34,0,1,1-.34-.34A.35.35,0,0,1,71.51,63.31Z"></path><path class="cls-101" d="M42.79,42.9a.81.81,0,1,1-.81-.8A.81.81,0,0,1,42.79,42.9Z"></path><path class="cls-102" d="M56,43.94a.5.5,0,0,1-.5.5.5.5,0,0,1,0-1A.5.5,0,0,1,56,43.94Z"></path><path class="cls-103" d="M42.79,41a.5.5,0,1,1-.5-.5A.5.5,0,0,1,42.79,41Z"></path><path class="cls-104" d="M65.89,37.31a.5.5,0,0,1-.5.5.5.5,0,0,1-.5-.5.5.5,0,0,1,.5-.5A.51.51,0,0,1,65.89,37.31Z"></path><path class="cls-105" d="M64.75,38.81a.35.35,0,0,1-.35.35.35.35,0,0,1,0-.69A.35.35,0,0,1,64.75,38.81Z"></path><circle class="cls-106" cx="49.02" cy="35.51" r=".28"></circle><path class="cls-107" d="M56,31.69a.37.37,0,0,1-.37.37.37.37,0,1,1,0-.73A.37.37,0,0,1,56,31.69Z"></path><polygon class="cls-4" points="53.89 35.22 47.5 4.63 54.73 34.94 57.19 7.8 55.58 34.74 63.5 12.38 56.4 34.65 73.63 5.95 57.18 34.66 71 18.38 57.88 34.77 80.25 14.63 58.49 34.98 93.24 10.72 58.99 35.28 90 17.88 59.36 35.66 107.8 15.13 59.58 36.12 98.25 24.13 59.65 36.62 105.8 27.38 59.57 37.17 100.4 34.05 59.34 37.74 89.75 39.63 58.98 38.31 98.5 46.38 58.48 38.86 102.2 56.13 57.86 39.38 89 60.88 57.15 39.86 73.37 60.23 56.37 40.26 65.3 63.92 55.55 40.59 56.9 66.78 54.7 40.83 48.44 68.7 53.86 40.98 40.19 69.63 53.06 41.02 32.41 69.54 52.31 40.96 25.35 68.43 51.65 40.8 10 73.63 51.09 40.54 19.25 59.88 50.66 40.2 9.75 59.88 50.37 39.78 23.75 48.63 50.22 39.3 3.75 50.63 50.22 38.77 14.25 42.88 50.38 38.21 7 38.88 50.67 37.64 18.25 32.88 51.11 37.07 3 21.88 51.67 36.53 17.75 18.38 52.34 36.03 32.66 17.55 53.08 35.59 43.25 17.38"></polygon><polygon class="cls-3" points="53.25 36.3 41.31 20.91 53.84 35.99 47.37 18.16 54.46 35.75 53.68 16.05 55.09 35.57 60.02 14.64 55.72 35.47 66.2 13.97 56.32 35.44 72.02 14.07 56.88 35.49 77.28 14.93 57.37 35.61 81.83 16.53 57.78 35.81 85.51 18.82 58.1 36.07 88.2 21.71 58.32 36.38 89.83 25.13 58.43 36.75 90.33 28.95 58.42 37.15 89.7 33.06 58.3 37.57 87.94 37.32 58.07 37.99 85.13 41.59 57.74 38.42 81.34 45.75 57.32 38.82 76.7 49.65 56.82 39.2 71.36 53.18 56.25 39.52 65.49 56.2 55.65 39.8 59.28 58.64 55.02 40.01 52.93 60.41 54.38 40.15 46.65 61.46 53.76 40.22 40.62 61.74 53.18 40.21 35.06 61.26 52.66 40.12 30.14 60.02 52.2 39.96 26 58.07 51.83 39.73 22.8 55.47 51.56 39.44 20.63 52.3 51.4 39.1 19.57 48.67 51.35 38.72 19.63 44.69 51.41 38.31 20.83 40.49 51.59 37.88 23.13 36.2 51.87 37.45 26.44 31.97 52.25 37.04 30.67 27.92 52.72 36.65 35.68 24.19"></polygon><path class="cls-108" d="m15.27 34a1.94 1.94 0 1 1-1.94-2 1.93 1.93 0 0 1 1.94 2z"></path><rect class="cls-3" x="97.78" y="38.85" width=".16" height=".16"></rect><rect class="cls-3" x="91.92" y="39.53" width=".16" height=".16"></rect><rect class="cls-3" x="103.4" y="50.03" width=".16" height=".16"></rect><rect class="cls-3" x="94.75" y="49.83" width=".16" height=".16"></rect><rect class="cls-3" x="96.08" y="43.38" width=".16" height=".16"></rect><path class="cls-109" d="M97,45.14a2.63,2.63,0,1,1-2.63-2.63A2.63,2.63,0,0,1,97,45.14Z"></path><path class="cls-110" d="M92.53,43.93a5.5,5.5,0,0,0,1.14-.43l2-.69a2.7,2.7,0,0,0-1.24-.3,2.63,2.63,0,0,0-2.63,2.63,1,1,0,0,0,0,.17l2-.69,2.8-.95h0a2.54,2.54,0,0,0-.29-.36A9.54,9.54,0,0,1,92.53,43.93Z"></path><path class="cls-110" d="M97,44.54A6.46,6.46,0,0,1,94.66,46l-.88.34-1.38.53a2.83,2.83,0,0,0,.3.3l2.46-.84a11,11,0,0,0,1.17-.37,1.11,1.11,0,0,1-.5.64,3.36,3.36,0,0,1-.43.2c-.7.27-1.4.51-2.1.75a2.54,2.54,0,0,0,1.1.25A2.63,2.63,0,0,0,97,45.14,2.35,2.35,0,0,0,97,44.54Z"></path></g></g></g></svg>