<svg enable-background="new 0 0 200 200" version="1.1" viewBox="0 0 192 192" xml:space="preserve" xmlns="http://www.w3.org/2000/svg" width="192" height="192"><g transform="rotate(0 3.14 2.18) translate(-19.3559837383998 39.82292241735921) scale(1.1435537421402706)"><path d="m87.3 12.6c-2.8-5.6-9.7-7.9-15.3-5l-36.1 18.2c-4 2-6.3 6-6.2 10.2v36.9c0 6.3 5.1 11.4 11.4 11.4s11.4-5.1 11.4-11.4v-30l29.9-15.1c5.5-2.8 7.7-9.6 4.9-15.2z" fill="#231F20"></path><path d="m114.7 12.6c2.8-5.6 9.7-7.9 15.3-5l36.1 18.2c4 2 6.3 6 6.2 10.2v36.9c0 6.3-5.1 11.4-11.4 11.4s-11.4-5.1-11.4-11.4v-30l-29.9-15.1c-5.5-2.8-7.7-9.6-4.9-15.2z" fill="#231F20"></path><ellipse cx="101" cy="43" rx="53" ry="27.4" fill="#424143"></ellipse><path d="m164.2 81.2c0 6-4.9 10.9-10.9 10.9h-104.7c-6 0-10.9-4.9-10.9-10.9v-43.5c0-6 4.9-10.9 10.9-10.9h104.7c6 0 10.9 4.9 10.9 10.9v43.5z" fill="#424143"></path><path d="m156.1 82.6c0 5.2-4.2 9.5-9.5 9.5h-91.2c-5.2 0-9.5-4.2-9.5-9.5v-46.3c0-5.2 4.2-9.5 9.5-9.5h91.2c5.2 0 9.5 4.2 9.5 9.5v46.3z" fill="#595A5C"></path><circle cx="101" cy="59.4" r="22" fill="#CCEAFF"></circle><circle cx="101" cy="59.4" r="17.8" fill="#FFFFFF"></circle><path d="m97.2 52.1c-1.8 0-2.8 0.6-3.7 1.6-1.9 1.9-1.9 5.7 0 7.9l7.1 7c0.2 0.2 0.7 0.2 0.9 0l7.1-7c1.9-2.1 1.9-5.9 0-7.9-0.9-1-2-1.6-3.7-1.6-1.8 0-3.3 1.2-3.8 2.2-0.7-1-2.5-2.2-3.9-2.2zm10.1 5.8-2.4 2.4c-0.2 0.2-0.6 0.2-0.8 0s-0.2-0.6 0-0.8l2.4-2.4c0.2-0.2 0.6-0.2 0.8 0 0.3 0.2 0.3 0.6 0 0.8z" fill-rule="evenodd" clip-rule="evenodd" fill="#F23B14"></path></g></svg>